<?xml version="1.0" standalone="no"?><!DOCTYPE svg PUBLIC "-//W3C//DTD SVG 1.1//EN" "http://www.w3.org/Graphics/SVG/1.1/DTD/svg11.dtd"><svg t="1629971867614" class="icon" viewBox="0 0 1024 1024" version="1.1" xmlns="http://www.w3.org/2000/svg" p-id="2768" xmlns:xlink="http://www.w3.org/1999/xlink" width="200" height="200"><defs><style type="text/css"></style></defs><path d="M512 96c-229.76 0-416 186.24-416 416s186.24 416 416 416 416-186.24 416-416S741.76 96 512 96z m0 64a352 352 0 1 1 0 704 352 352 0 0 1 0-704z" fill="#000000" p-id="2769"></path><path d="M298.666667 497.066667c0-9.386667 7.68-17.066667 17.066666-17.066667h164.266667V315.733333c0-9.386667 7.68-17.066667 17.066667-17.066666h29.866666c9.386667 0 17.066667 7.68 17.066667 17.066666v164.266667h164.266667c9.386667 0 17.066667 7.68 17.066666 17.066667v29.866666a17.066667 17.066667 0 0 1-17.066666 17.066667h-164.266667v164.266667a17.066667 17.066667 0 0 1-17.066667 17.066666h-29.866666a17.066667 17.066667 0 0 1-17.066667-17.066666v-164.266667H315.733333a17.066667 17.066667 0 0 1-17.066666-17.066667v-29.866666z" fill="#FF983B" p-id="2770" data-spm-anchor-id="a313x.7781069.0.i2" class="selected"></path></svg>