<?xml version="1.0" standalone="no"?><!DOCTYPE svg PUBLIC "-//W3C//DTD SVG 1.1//EN" "http://www.w3.org/Graphics/SVG/1.1/DTD/svg11.dtd"><svg t="1631887422200" class="icon" viewBox="0 0 1024 1024" version="1.1" xmlns="http://www.w3.org/2000/svg" p-id="970" xmlns:xlink="http://www.w3.org/1999/xlink" width="200" height="200"><defs><style type="text/css"></style></defs><path d="M462.293333 512.29866701l0.085334 15.10399999c0.512 59.904 4.096 113.365333 10.325333 147.242666 0 0.64 6.826667 34.218667 11.136 45.397334 6.826667 16.213333 19.07200001 29.909333 34.51733299 38.613333a85.333333 85.333333 0 0 0 38.82666701 9.34399999c10.624-0.512 28.16-5.845333 40.704-10.32533299l10.410667-4.01066701c68.992-27.392 200.832-116.906667 251.349333-171.69066699l3.712-3.84 16.64-17.92A79.189333 79.189333 0 0 0 896 511.65866701c0-16.170667-4.949333-32.341333-14.805333-45.39733401-2.986667-4.22399999-7.68-9.64266699-11.946667-14.250666l-16.170667-16.938667c-55.637333-56.362667-176.170667-135.466667-238.634666-161.706667 0-0.554667-38.826667-16.768-57.301334-17.365333l-2.432 0c-28.373333 0-54.869333 16.170667-68.394666 42.282667-3.712 7.168-7.253333 21.16266699-9.941334 33.450666l-4.864 23.21066699c-5.546667 37.290667-9.216 94.54933301-9.216 157.35466702z m-270.165333-65.06666701c-35.413333 0-64.12799999 29.013333-64.12800001 64.768a64.426667 64.426667 0 0 0 64.12800001 64.768l157.866667-13.994667c27.733333 0 50.304-22.698667 50.304-50.773333 0-28.07466701-22.528-50.816-50.346667-50.816l-157.824-13.952z" fill="#efb96a" p-id="971"></path></svg>