<?xml version="1.0" standalone="no"?><!DOCTYPE svg PUBLIC "-//W3C//DTD SVG 1.1//EN" "http://www.w3.org/Graphics/SVG/1.1/DTD/svg11.dtd"><svg t="1629556870477" class="icon" viewBox="0 0 1024 1024" version="1.1" xmlns="http://www.w3.org/2000/svg" p-id="4681" id="mx_n_1629556870478" data-spm-anchor-id="a313x.7781069.0.i15" xmlns:xlink="http://www.w3.org/1999/xlink" width="200" height="200"><defs><style type="text/css"></style></defs><path d="M512 810.666667a298.666667 298.666667 0 1 0 0-597.333334 298.666667 298.666667 0 0 0 0 597.333334z m0 85.333333a384 384 0 1 1 0-768 384 384 0 0 1 0 768z" fill="#ffffff" p-id="4682" data-spm-anchor-id="a313x.7781069.0.i14" class=""></path><path d="M512 412.458667c-28.458667-43.605333-42.666667-76.202667-42.666667-97.792C469.333333 282.24 488.448 256 512 256s42.666667 26.282667 42.666667 58.666667c0 21.589333-14.208 54.186667-42.666667 97.792zM512 597.333333c28.458667 43.605333 42.666667 76.16 42.666667 97.792 0 32.426667-19.114667 58.666667-42.666667 58.666667s-42.666667-26.282667-42.666667-58.666667c0-21.632 14.208-54.186667 42.666667-97.792z m99.541333-85.333333c43.605333-28.458667 76.202667-42.666667 97.792-42.666667 32.426667 0 58.666667 19.114667 58.666667 42.666667s-26.282667 42.666667-58.666667 42.666667c-21.589333 0-54.186667-14.208-97.792-42.666667zM426.666667 512c-43.605333 28.458667-76.16 42.666667-97.792 42.666667-32.426667 0-58.666667-19.114667-58.666667-42.666667s26.282667-42.666667 58.666667-42.666667c21.632 0 54.186667 14.208 97.792 42.666667z m155.733333-70.4c10.666667-50.944 23.68-84.053333 38.954667-99.285333 22.912-22.912 55.04-27.989333 71.68-11.349334 16.64 16.64 11.562667 48.768-11.349334 71.68-15.274667 15.274667-48.341333 28.245333-99.285333 38.954667z m-130.730667 130.730667c-10.709333 50.944-23.722667 84.053333-38.997333 99.328-22.912 22.912-54.954667 27.946667-71.637333 11.306666-16.64-16.64-11.605333-48.725333 11.306666-71.68 15.274667-15.232 48.384-28.245333 99.328-38.954666z m130.730667 10.069333c50.944 10.666667 84.053333 23.68 99.285333 38.954667 22.912 22.912 27.989333 55.04 11.349334 71.68-16.64 16.64-48.768 11.562667-71.68-11.349334-15.274667-15.274667-28.245333-48.341333-38.954667-99.285333z m-130.730667-130.730667c-50.944-10.709333-84.053333-23.722667-99.328-38.997333-22.912-22.912-27.946667-54.954667-11.306666-71.637333 16.64-16.64 48.725333-11.605333 71.68 11.306666 15.232 15.274667 28.245333 48.384 38.954666 99.328z" fill="#ffffff" opacity=".3" p-id="4683"></path></svg>