<?xml version="1.0" standalone="no"?><!DOCTYPE svg PUBLIC "-//W3C//DTD SVG 1.1//EN" "http://www.w3.org/Graphics/SVG/1.1/DTD/svg11.dtd"><svg t="1629642231450" class="icon" viewBox="0 0 1024 1024" version="1.1" xmlns="http://www.w3.org/2000/svg" p-id="1246" xmlns:xlink="http://www.w3.org/1999/xlink" width="200" height="200"><defs><style type="text/css"></style></defs><path d="M942.5408 714.24c-23.2448-21.5552-47.7184-19.8144-57.4976-72.3456-9.8304-52.5312-125.6448-259.84-372.992-242.8416-244.9408 16.8448-286.0544 259.3792-286.0544 285.9008-30.0544 13.4656-77.7728 30.464-77.7728 74.24 0 47.4112 28.1088 62.1056 71.2192 62.1056s648.3968 1.9456 687.616 1.9456 85.2992-62.8736 35.4816-109.0048z" fill="#A5ADF6" p-id="1247"></path><path d="M917.2992 659.3024c-11.9808-191.232-156.8256-347.0336-343.0912-375.7568 13.312-14.848 21.504-34.3552 21.504-55.808 0-46.1312-37.5296-83.6608-83.6608-83.6608s-83.6608 37.5296-83.6608 83.6608c0 21.4528 8.192 40.96 21.504 55.808-186.3168 28.7232-331.1616 184.5248-343.1424 375.7568-39.7824 13.1584-68.608 50.6368-68.608 94.7712 0 55.04 44.8 99.84 99.84 99.84h748.032c55.0912 0 99.8912-44.8 99.8912-99.84 0-44.1344-28.8256-81.6128-68.608-94.7712z m-405.248-453.7856c12.2368 0 22.2208 9.984 22.2208 22.2208 0 12.2368-9.984 22.2208-22.2208 22.2208-12.2368 0-22.2208-9.984-22.2208-22.2208 0-12.2368 9.984-22.2208 22.2208-22.2208z m0 134.7072c179.712 0 327.7824 138.24 343.3984 314.0096H168.6528c15.616-175.7696 163.6352-314.0096 343.3984-314.0096z m374.016 452.3008H138.0352c-21.1968 0-38.4-17.2544-38.4-38.4s17.2544-38.4 38.4-38.4h748.032c21.1968 0 38.4512 17.2544 38.4512 38.4s-17.3056 38.4-38.4512 38.4z" fill="#5D5D66" p-id="1248"></path><path d="M608.8192 413.696c-15.7184-6.3488-33.6384 1.1776-39.9872 16.9472-6.4 15.7184 1.2288 33.6384 16.9472 39.9872 0.8192 0.3584 84.3776 34.9184 110.7968 107.52a30.74048 30.74048 0 0 0 39.3728 18.3808 30.76096 30.76096 0 0 0 18.3808-39.3728c-35.7376-97.9968-141.056-141.6192-145.5104-143.4624z" fill="#5D5D66" p-id="1249"></path></svg>