<?xml version="1.0" standalone="no"?><!DOCTYPE svg PUBLIC "-//W3C//DTD SVG 1.1//EN" "http://www.w3.org/Graphics/SVG/1.1/DTD/svg11.dtd"><svg t="1629643778972" class="icon" viewBox="0 0 1024 1024" version="1.1" xmlns="http://www.w3.org/2000/svg" p-id="2782" xmlns:xlink="http://www.w3.org/1999/xlink" width="200" height="200"><defs><style type="text/css"></style></defs><path d="M390.7072 264.704H316.5696c-43.9296 0-66.816 47.0528-68.096 86.272h-46.592c-11.8272 0-21.4528 9.5744-21.4528 21.4528v347.8528l62.2592 3.9424s-4.4544 100.0448 73.8816 100.0448 71.1168-66.048 71.1168-81.7152c0-15.7184 3.0208-477.8496 3.0208-477.8496zM890.0608 274.5344h-97.8944v-20.6336h-48.2816c-17.3056 0-31.3344 14.7456-31.3344 32.8704v529.9712s88.7808 5.888 88.7808-76.4928c38.2976 0 109.824 6.8608 109.824-59.8016s-2.304-365.7216 0-378.4192c2.2528-12.8-21.0944-27.4944-21.0944-27.4944z" fill="#80B7F9" p-id="2783"></path><path d="M848.6912 238.7456c-11.264 0-22.016 2.0992-32 5.7856-4.7104-53.2992-49.6128-95.2832-104.1408-95.2832-57.6512 0-104.6016 46.8992-104.6016 104.6016v150.9376H421.1712V253.8496c0-57.6512-46.8992-104.6016-104.6016-104.6016-54.528 0-99.3792 41.984-104.1408 95.2832-9.984-3.6864-20.736-5.7856-32-5.7856-51.3536 0-93.1328 41.7792-93.1328 93.1328v340.4288c0 51.3536 41.7792 93.1328 93.1328 93.1328 11.264 0 22.016-2.0992 32-5.7856 4.7104 53.3504 49.6128 95.2832 104.1408 95.2832 57.6512 0 104.6016-46.8992 104.6016-104.6016v-150.9376h186.7776v150.9376c0 57.6512 46.8992 104.6016 104.6016 104.6016 54.528 0 99.3792-41.984 104.1408-95.2832 9.984 3.6864 20.736 5.7856 32 5.7856 51.3536 0 93.1328-41.7792 93.1328-93.1328V331.9296c0-51.4048-41.7792-93.184-93.1328-93.184zM180.4288 704c-17.4592 0-31.6928-14.2336-31.6928-31.6928V331.9296c0-17.4592 14.2336-31.6928 31.6928-31.6928 16.4864 0 30.0544 12.6464 31.5392 28.7232v346.3168a31.67232 31.67232 0 0 1-31.5392 28.7232z m179.3024 46.3872c0 23.808-19.3536 43.1616-43.1616 43.1616s-43.1616-19.3536-43.1616-43.1616v-75.1104c0.0512-0.9728 0.1536-1.9456 0.1536-2.9696V331.9296c0-1.024-0.1024-1.9456-0.1536-2.9696V253.8496c0-23.808 19.3536-43.1616 43.1616-43.1616s43.1616 19.3536 43.1616 43.1616v496.5376z m247.9616-212.3776H421.4272V466.2272h186.2144v71.7824z m104.8576 255.5392c-23.808 0-43.1616-19.3536-43.1616-43.1616V253.8496c0-23.808 19.3536-43.1616 43.1616-43.1616s43.1616 19.3536 43.1616 43.1616v75.2128c-0.0512 0.9728-0.1536 1.8944-0.1536 2.8672v340.4288c0 0.9728 0.1024 1.8944 0.1536 2.8672v75.1616c0 23.7568-19.3536 43.1616-43.1616 43.1616z m167.8336-121.2416c0 17.4592-14.2336 31.6928-31.6928 31.6928-16.4864 0-30.1056-12.6976-31.5392-28.8256v-346.112a31.72352 31.72352 0 0 1 31.5392-28.8256c17.4592 0 31.6928 14.2336 31.6928 31.6928v340.3776z" fill="#5D5D66" p-id="2784"></path></svg>