<?xml version="1.0" standalone="no"?><!DOCTYPE svg PUBLIC "-//W3C//DTD SVG 1.1//EN" "http://www.w3.org/Graphics/SVG/1.1/DTD/svg11.dtd"><svg t="1629644679742" class="icon" viewBox="0 0 1024 1024" version="1.1" xmlns="http://www.w3.org/2000/svg" p-id="3549" xmlns:xlink="http://www.w3.org/1999/xlink" width="200" height="200"><defs><style type="text/css"></style></defs><path d="M825.4464 228.7616H283.392S226.5088 329.4208 211.8144 355.584c-14.6944 26.1632-76.4928 155.6992 19.6096 200.2432l63.744 2.4064v308.8384h514.7136s15.5136-158.8224 15.5136-204.9024v-101.7344S957.44 499.8144 921.9072 397.1584c-35.5328-102.7072-96.4608-168.3968-96.4608-168.3968z" fill="#FFD578" p-id="3550"></path><path d="M825.4464 612.7104c-16.9472 0-30.72 13.7728-30.72 30.72v169.7792c0 16.64-13.5168 30.1568-30.1568 30.1568H264.5504c-16.64 0-30.1568-13.5168-30.1568-30.1568v-169.7792c0-16.9472-13.7728-30.72-30.72-30.72s-30.72 13.7728-30.72 30.72v169.7792c0 50.5344 41.1136 91.5968 91.5968 91.5968h500.0192c50.5344 0 91.5968-41.1136 91.5968-91.5968v-169.7792c0-16.9472-13.7728-30.72-30.72-30.72zM955.7504 418.8672c-2.048-46.1824-24.7808-84.8896-29.1328-91.9552l-92.8768-163.7376a85.4528 85.4528 0 0 0-74.1888-43.2128H260.608c-30.464 0-58.7776 16.384-73.9328 42.8032-21.6064 37.6832-61.4912 107.6224-85.7088 153.0368-24.0128 45.0048-27.5456 97.8432-27.6992 100.0448-0.0512 0.6656-0.0512 1.28-0.0512 1.9456 0 95.5392 77.7216 173.2608 173.2608 173.2608 53.76 0 103.0144-24.6272 135.2192-64.8704a172.928 172.928 0 0 0 135.2192 64.8704c53.76 0 103.0656-24.6272 135.2192-64.8704a172.928 172.928 0 0 0 135.2192 64.8704c47.7184 0 91.648-18.432 123.5968-51.8656 30.9248-32.2048 46.848-75.008 44.8-120.32z m-89.1392 77.9264c-20.2752 21.1968-48.384 32.8704-79.2064 32.8704-48.2304 0-90.88-30.72-106.0864-76.4928a30.7712 30.7712 0 0 0-29.1328-21.0432c-13.2096 0-24.9856 8.448-29.1328 21.0432a111.60576 111.60576 0 0 1-106.0864 76.4928c-48.2304 0-90.88-30.72-106.0864-76.4928-4.1984-12.544-15.9232-21.0432-29.1328-21.0432s-24.9856 8.448-29.1328 21.0432a111.60576 111.60576 0 0 1-106.0864 76.4928c-61.2864 0-111.2064-49.5616-111.8208-110.6944 0.512-6.0416 4.4032-43.8784 20.5312-74.1888 23.808-44.6464 63.3344-113.9712 84.7872-151.3472a23.86944 23.86944 0 0 1 20.6848-11.9296h498.9952c8.5504 0 16.4864 4.608 20.736 12.0832l93.184 164.3008c0.256 0.4608 0.512 0.8704 0.768 1.3312 0.2048 0.3072 18.6368 30.208 20.0704 62.5152 1.1776 28.3136-8.704 54.9888-27.8528 75.0592z" fill="#5D5D66" p-id="3551"></path><path d="M754.9952 304.0768H274.0736c-16.9472 0-30.72 13.7728-30.72 30.72s13.7728 30.72 30.72 30.72h480.9216c16.9472 0 30.72-13.7728 30.72-30.72s-13.7216-30.72-30.72-30.72z" fill="#5D5D66" p-id="3552"></path></svg>