<?xml version="1.0" standalone="no"?><!DOCTYPE svg PUBLIC "-//W3C//DTD SVG 1.1//EN" "http://www.w3.org/Graphics/SVG/1.1/DTD/svg11.dtd"><svg t="1629644134794" class="icon" viewBox="0 0 1024 1024" version="1.1" xmlns="http://www.w3.org/2000/svg" p-id="3241" xmlns:xlink="http://www.w3.org/1999/xlink" width="200" height="200"><defs><style type="text/css"></style></defs><path d="M540.9792 549.5808m-364.288 0a364.288 364.288 0 1 0 728.576 0 364.288 364.288 0 1 0-728.576 0Z" fill="#FF94A4" p-id="3242"></path><path d="M502.6816 78.0288c-238.8992 0-433.3056 194.3552-433.3056 433.3056s194.3552 433.3056 433.3056 433.3056 433.3056-194.3552 433.3056-433.3056-194.4064-433.3056-433.3056-433.3056z m0 805.12c-205.056 0-371.8656-166.8096-371.8656-371.8656s166.8096-371.8656 371.8656-371.8656 371.8656 166.8096 371.8656 371.8656-166.8096 371.8656-371.8656 371.8656z" fill="#5D5D66" p-id="3243"></path><path d="M675.2768 398.8992H395.1616l49.5104-60.1088a30.72 30.72 0 0 0-4.1984-43.264 30.72 30.72 0 0 0-43.264 4.1984L306.3808 410.112a30.6176 30.6176 0 0 0-4.0448 32.6656c5.0688 10.752 15.872 17.6128 27.8016 17.6128h345.1904c16.9472 0 30.72-13.7728 30.72-30.72s-13.824-30.7712-30.7712-30.7712zM675.2768 577.4848H330.0864c-16.9472 0-30.72 13.7728-30.72 30.72s13.7728 30.72 30.72 30.72h280.1152l-49.5104 60.16a30.72 30.72 0 0 0 4.1984 43.264 30.64832 30.64832 0 0 0 43.2128-4.1984l90.88-110.3872a30.6176 30.6176 0 0 0 4.0448-32.6656c-5.0176-10.752-15.872-17.6128-27.7504-17.6128z" fill="#5D5D66" p-id="3244"></path></svg>