<?xml version="1.0" standalone="no"?><!DOCTYPE svg PUBLIC "-//W3C//DTD SVG 1.1//EN" "http://www.w3.org/Graphics/SVG/1.1/DTD/svg11.dtd"><svg t="1629879643163" class="icon" viewBox="0 0 1024 1024" version="1.1" xmlns="http://www.w3.org/2000/svg" p-id="2625" xmlns:xlink="http://www.w3.org/1999/xlink" width="200" height="200"><defs><style type="text/css"></style></defs><path d="M559.9744 885.504h-261.12c-36.7616 0-66.5088-29.7984-66.5088-66.5088V304.7936c0-36.7616 29.7984-66.5088 66.5088-66.5088h261.12c36.7616 0 66.5088 29.7984 66.5088 66.5088v514.2016c0.0512 36.7104-29.7472 66.5088-66.5088 66.5088z" fill="#FF94A4" p-id="2626"></path><path d="M485.12 249.8048H294.912c-33.28 0-60.416 27.0848-60.416 60.416v85.8624c0 33.28 27.0848 60.416 60.416 60.416h190.1568c33.28 0 60.416-27.0848 60.416-60.416V310.2208c0-33.3312-27.0848-60.416-60.3648-60.416z m-1.0752 145.2544H295.9872V311.2448h188.1088v83.8144z" fill="#5D5D66" p-id="2627"></path><path d="M897.6384 311.3472l-112.7936-117.0432a30.67392 30.67392 0 0 0-43.4176-0.8192 30.67392 30.67392 0 0 0-0.8192 43.4176L844.8 345.0368v413.2352c0 18.8416-15.36 34.2016-34.2016 34.2016-18.8416 0-34.2016-15.36-34.2016-34.2016V482.4576c0-45.824-37.2736-83.1488-83.1488-83.1488h-36.0448V224.1536c0-53.6064-43.6224-97.2288-97.2288-97.2288h-340.48c-53.6064 0-97.2288 43.6224-97.2288 97.2288v594.7904c0 53.6064 43.6224 97.2288 97.2288 97.2288h340.48c53.6064 0 97.2288-43.6224 97.2288-97.2288V460.7488h36.0448c11.9808 0 21.7088 9.728 21.7088 21.7088v275.8656c0 52.736 42.9056 95.6416 95.6416 95.6416 52.736 0 95.6416-42.9056 95.6416-95.6416V332.6464c0-7.936-3.072-15.5648-8.6016-21.2992z m-301.824 507.5968c0 19.7632-16.0768 35.7888-35.7888 35.7888h-340.48c-19.7632 0-35.7888-16.0768-35.7888-35.7888V224.1536c0-19.7632 16.0768-35.7888 35.7888-35.7888h340.48c19.7632 0 35.7888 16.0768 35.7888 35.7888v594.7904z" fill="#5D5D66" p-id="2628"></path></svg>