<?xml version="1.0" standalone="no"?><!DOCTYPE svg PUBLIC "-//W3C//DTD SVG 1.1//EN" "http://www.w3.org/Graphics/SVG/1.1/DTD/svg11.dtd"><svg t="1629643550139" class="icon" viewBox="0 0 1024 1024" version="1.1" xmlns="http://www.w3.org/2000/svg" p-id="2629" xmlns:xlink="http://www.w3.org/1999/xlink" width="200" height="200"><defs><style type="text/css"></style></defs><path d="M852.1728 861.7984H253.44c-28.16 0-50.9952-22.8352-50.9952-50.9952V415.6928c0-28.16 22.8352-50.9952 50.9952-50.9952h598.7328c28.16 0 50.9952 22.8352 50.9952 50.9952v395.1104c-0.0512 28.16-22.8352 50.9952-50.9952 50.9952z" fill="#4BE2AC" p-id="2630"></path><path d="M820.5824 251.0848h-108.9536V182.3232c0-30.4128-24.7296-55.1424-55.1424-55.1424H364.2368c-30.4128 0-55.1424 24.7296-55.1424 55.1424v68.7616H201.2672c-62.464 0-113.2544 50.7904-113.2544 113.2544v414.8736c0 62.464 50.7904 113.2544 113.2544 113.2544h619.3152c62.464 0 113.2544-50.7904 113.2544-113.2544V364.3904c0-62.464-50.7904-113.3056-113.2544-113.3056z m-450.048-62.464h279.6544v60.7744H370.5344V188.6208z m501.8624 590.6432c0 28.5696-23.2448 51.8144-51.8144 51.8144H201.2672c-28.5696 0-51.8144-23.2448-51.8144-51.8144V364.3904c0-28.5696 23.2448-51.8144 51.8144-51.8144h619.3152c28.5696 0 51.8144 23.2448 51.8144 51.8144v414.8736z" fill="#5D5D66" p-id="2631"></path><path d="M642.6112 543.8464h-113.152v-113.152c0-16.9472-13.7728-30.72-30.72-30.72s-30.72 13.7728-30.72 30.72v113.152H354.816c-16.9472 0-30.72 13.7728-30.72 30.72s13.7728 30.72 30.72 30.72h113.152v113.152c0 16.9472 13.7728 30.72 30.72 30.72s30.72-13.7728 30.72-30.72v-113.152h113.152c16.9472 0 30.72-13.7728 30.72-30.72s-13.7216-30.72-30.6688-30.72z" fill="#5D5D66" p-id="2632"></path></svg>