<?xml version="1.0" standalone="no"?><!DOCTYPE svg PUBLIC "-//W3C//DTD SVG 1.1//EN" "http://www.w3.org/Graphics/SVG/1.1/DTD/svg11.dtd"><svg t="1629879708750" class="icon" viewBox="0 0 1024 1024" version="1.1" xmlns="http://www.w3.org/2000/svg" p-id="3693" xmlns:xlink="http://www.w3.org/1999/xlink" width="200" height="200"><defs><style type="text/css"></style></defs><path d="M380.5184 197.7344L157.7472 326.0416s52.5312 118.1696 77.1072 148.736c24.6272 30.5664 68.6592 69.2224 163.7376 0s79.3088-97.6384 61.0816-140.8512-79.1552-136.192-79.1552-136.192z" fill="#FFD578" p-id="3694"></path><path d="M778.7008 355.84m-138.496 0a138.496 138.496 0 1 0 276.992 0 138.496 138.496 0 1 0-276.992 0Z" fill="#FFD578" p-id="3695"></path><path d="M748.9536 127.0784c-109.7216 0-198.9632 89.2416-198.9632 198.9632 0 58.3168 25.1904 110.7968 65.28 147.2512l-109.6704 134.7072-67.584-108.6464c30.5664-19.456 52.4288-49.2032 61.8496-84.4288 9.984-37.3248 4.864-76.288-14.4384-109.7216L393.216 145.6128a60.35456 60.35456 0 0 0-36.864-28.3136c-15.6672-4.1984-32.0512-2.048-46.08 6.0416L117.76 234.5472c-28.9792 16.7424-38.9632 53.9648-22.2208 82.944l92.16 159.5904c26.7776 46.336 75.4688 72.2944 125.4912 72.2944 24.3712 0 49.0496-6.1952 71.68-19.1488l79.7696 128.1536-176.9472 217.2928c-10.7008 13.1584-8.7552 32.512 4.4032 43.2128 5.6832 4.6592 12.544 6.912 19.3536 6.912 8.9088 0 17.7664-3.84 23.8592-11.3152l163.6352-200.96 125.7472 202.0864a30.70976 30.70976 0 0 0 26.112 14.4896c5.5296 0 11.1616-1.4848 16.1792-4.6592a30.70976 30.70976 0 0 0 9.8304-42.2912l-136.9088-220.0064 126.976-155.9552a197.42208 197.42208 0 0 0 82.1248 17.8176c109.7216 0 198.9632-89.2416 198.9632-198.9632-0.0512-109.7216-89.2928-198.9632-199.0144-198.9632zM240.8448 446.3616L149.0944 287.3856l191.2832-110.4384L432.128 335.9232c11.1104 19.2512 14.08 41.6768 8.2944 63.1296-5.7344 21.4528-19.5072 39.424-38.7584 50.5344l-47.2064 27.2896c-39.68 22.8352-90.6752 9.1648-113.6128-30.5152z m508.1088 17.2032c-75.8272 0-137.5232-61.696-137.5232-137.5232 0-75.8272 61.696-137.5232 137.5232-137.5232 75.8272 0 137.5232 61.696 137.5232 137.5232 0 75.8272-61.696 137.5232-137.5232 137.5232z" fill="#5D5D66" p-id="3696"></path><path d="M748.9536 374.5792c-26.7264 0-48.4864-21.76-48.4864-48.4864 0-16.9472-13.7728-30.72-30.72-30.72s-30.72 13.7728-30.72 30.72c0 60.6208 49.3056 109.9264 109.9264 109.9264 16.9472 0 30.72-13.7728 30.72-30.72s-13.7728-30.72-30.72-30.72zM271.4112 317.9008a30.70976 30.70976 0 0 0-42.24-10.1888 30.70976 30.70976 0 0 0-10.1888 42.24l53.4528 87.4496a30.67904 30.67904 0 0 0 26.2656 14.6944 30.70976 30.70976 0 0 0 26.1632-46.7456L271.4112 317.9008zM406.7328 358.7584L353.28 271.3088A30.70976 30.70976 0 0 0 311.04 261.12a30.70976 30.70976 0 0 0-10.1888 42.24L354.304 390.8096a30.67904 30.67904 0 0 0 26.2656 14.6944 30.70976 30.70976 0 0 0 26.1632-46.7456z" fill="#5D5D66" p-id="3697"></path></svg>