<?xml version="1.0" standalone="no"?><!DOCTYPE svg PUBLIC "-//W3C//DTD SVG 1.1//EN" "http://www.w3.org/Graphics/SVG/1.1/DTD/svg11.dtd"><svg t="1629644565889" class="icon" viewBox="0 0 1024 1024" version="1.1" xmlns="http://www.w3.org/2000/svg" p-id="3394" xmlns:xlink="http://www.w3.org/1999/xlink" width="200" height="200"><defs><style type="text/css"></style></defs><path d="M551.5776 554.9568m-370.944 0a370.944 370.944 0 1 0 741.888 0 370.944 370.944 0 1 0-741.888 0Z" fill="#FFD578" p-id="3395"></path><path d="M509.5424 69.2736c-244.6336 0-443.6992 199.0656-443.6992 443.6992s199.0656 443.6992 443.6992 443.6992 443.6992-199.0144 443.6992-443.6992-199.0656-443.6992-443.6992-443.6992z m0 825.9072c-210.7904 0-382.2592-171.4688-382.2592-382.2592 0-210.7904 171.4688-382.2592 382.2592-382.2592s382.2592 171.4688 382.2592 382.2592c0 210.7904-171.4688 382.2592-382.2592 382.2592z" fill="#5D5D66" p-id="3396"></path><path d="M554.8544 338.7392c-24.9856-24.9856-65.5872-24.9856-90.5728 0L335.3088 467.6608c-24.9856 24.9856-24.9856 65.5872 0 90.5728l128.9728 128.9728c12.4928 12.4928 28.8768 18.7392 45.312 18.7392s32.8192-6.2464 45.312-18.7392l128.9728-128.9728c24.9856-24.9856 24.9856-65.6384 0-90.5728l-129.024-128.9216z m85.504 176.0768l-128.9728 128.9728c-1.024 1.024-2.6624 1.024-3.6864 0l-128.9216-128.9728c-1.024-1.024-1.024-2.6624 0-3.6864l128.9728-128.9728a2.60096 2.60096 0 0 1 3.6864 0l128.9728 128.9728c0.9728 0.9728 0.9728 2.6624-0.0512 3.6864z" fill="#5D5D66" p-id="3397"></path></svg>