<?xml version="1.0" standalone="no"?><!DOCTYPE svg PUBLIC "-//W3C//DTD SVG 1.1//EN" "http://www.w3.org/Graphics/SVG/1.1/DTD/svg11.dtd"><svg t="1629643324928" class="icon" viewBox="0 0 1024 1024" version="1.1" xmlns="http://www.w3.org/2000/svg" p-id="2164" xmlns:xlink="http://www.w3.org/1999/xlink" width="200" height="200"><defs><style type="text/css"></style></defs><path d="M721.0496 867.9936l-46.9504-136.0896 93.184-96s149.504 48.384 164.9664-33.28c15.4624-81.664-11.0592-268.8-152.2176-344.4224-48.9984-18.7392-105.9328-97.3824-277.4528-82.4832-117.4016 10.1888-186.1632 106.5472-206.7456 150.6816S221.4912 307.2 173.1072 495.4624c-19.6096 71.5776-25.3952 144.7936 15.6672 140.4416 41.1136-4.352 66.6624-10.0352 80.384 15.4624 13.7216 25.4976 73.5232 80.5376 73.5232 80.5376l-46.8992 140.032 425.2672-3.9424z" fill="#FFB966" p-id="2165"></path><path d="M393.1136 364.5952m-39.0656 0a39.0656 39.0656 0 1 0 78.1312 0 39.0656 39.0656 0 1 0-78.1312 0Z" fill="#5D5D66" p-id="2166"></path><path d="M634.9824 365.4656m-39.0656 0a39.0656 39.0656 0 1 0 78.1312 0 39.0656 39.0656 0 1 0-78.1312 0Z" fill="#5D5D66" p-id="2167"></path><path d="M406.1184 604.7232a30.7712 30.7712 0 0 0-26.3168 34.56 30.70464 30.70464 0 0 0 30.4128 26.5728c1.3824 0 2.7648-0.1024 4.1984-0.3072 48.9984-6.656 80.1792-26.8288 99.584-50.7392 28.7744 35.072 71.168 49.2544 99.072 51.6096 0.8704 0.0512 1.7408 0.1024 2.6112 0.1024 15.7184 0 28.9792-11.9808 30.464-27.904 1.536-16.7936-10.8544-31.744-27.648-33.3824-12.3392-1.2288-72.0384-10.9056-74.0864-81.7664a50.09408 50.09408 0 0 0 21.1456-40.9088c0-27.7504-22.528-50.2784-50.2784-50.2784s-50.2784 22.528-50.2784 50.2784c0 14.7968 6.4512 28.0576 16.5888 37.2736-0.1024 1.8432-0.0512 3.7376 0.2048 5.632 0.9216 7.0144 6.7072 68.0448-75.6736 79.2576z" fill="#5D5D66" p-id="2168"></path><path d="M965.0688 510.2592c-61.3376-243.3536-184.4736-345.8048-280.6272-388.864a283.06432 283.06432 0 0 0-149.9136-42.8032h-40.8064c-51.1488 0-99.1232 13.6192-140.6976 37.3248-84.992 34.4064-227.072 130.304-293.5808 394.3424-1.8944 7.5776-22.6816 96.6144 31.744 143.0016 18.1248 15.4624 41.2672 23.1424 69.2736 23.1424 24.7296 0 53.3504-6.0928 85.5552-18.176 14.5408 25.5488 32.8192 48.5888 54.2208 68.4544L268.288 826.368c-6.4512 20.0704-2.8672 42.24 9.5744 59.2896s32.4096 27.2384 53.504 27.2384h354.0992c21.0944 0 41.1136-10.1888 53.504-27.1872s16.0256-39.2192 9.5744-59.2896l-29.4912-91.8528c24.832-21.1968 46.0288-46.6432 62.4128-75.1104 30.976 11.3152 58.5216 17.0496 82.5344 17.0496 28.1088 0 51.3536-7.7824 69.5296-23.3472 54.1696-46.5408 33.4336-135.3728 31.5392-142.8992zM131.072 606.464c-20.8384-17.7664-16.128-66.048-12.1856-80.6912l0.1536-0.512c24.064-95.5904 58.4192-166.3488 95.6416-218.8288-3.7376 18.432-5.7344 37.4272-5.7344 56.9344V517.9392c0 29.184 4.4544 57.3952 12.6464 83.9168-43.1104 15.6672-75.4176 17.5104-90.5216 4.608z m160.7168 6.8608c-0.4096-2.4064-1.1264-4.7616-2.1504-7.0656a225.09056 225.09056 0 0 1-19.3024-91.5456V366.592c0-82.5856 45.0048-158.72 117.504-198.6048 2.2016-1.1776 4.1472-2.6624 5.888-4.2496a222.1568 222.1568 0 0 1 99.9424-23.7056h40.8064c38.8096 0 75.264 9.9328 107.1104 27.4432 1.7408 1.6896 3.584 3.2768 5.7344 4.5568 69.1712 41.3696 110.4896 114.1248 110.4896 194.56v148.1216c0 32.2048-6.7072 63.4368-19.8656 92.7232-1.024 2.304-1.7408 4.7616-2.2016 7.2192-36.096 74.8544-112.7424 126.6176-201.2672 126.6176h-40.8064c-89.0368 0-166.0416-52.4288-201.8816-127.9488z m398.2848 231.7824c0.512 1.536 0.256 2.9696-0.7168 4.3008s-2.2528 1.9968-3.8912 1.9968H331.3664c-1.6384 0-2.9184-0.6656-3.8912-1.9968s-1.1776-2.7648-0.7168-4.3008l25.7024-80.0768a282.84928 282.84928 0 0 0 141.2096 37.632h40.8064c47.4624 0 92.2112-11.7248 131.584-32.3584l24.0128 74.8032z m203.4688-238.6944c-14.6944 12.5952-45.824 11.2128-87.2448-3.3792a283.6224 283.6224 0 0 0 13.0048-85.1456V363.3664c0-17.4592-1.6384-34.5088-4.7104-51.1488 35.6864 52.224 67.84 121.3952 90.9312 213.0432l0.1536 0.512c3.8912 14.592 8.6016 62.8736-12.1344 80.64z" fill="#5D5D66" p-id="2169"></path></svg>