<?xml version="1.0" standalone="no"?><!DOCTYPE svg PUBLIC "-//W3C//DTD SVG 1.1//EN" "http://www.w3.org/Graphics/SVG/1.1/DTD/svg11.dtd"><svg t="1629879618988" class="icon" viewBox="0 0 1024 1024" version="1.1" xmlns="http://www.w3.org/2000/svg" p-id="2009" xmlns:xlink="http://www.w3.org/1999/xlink" width="200" height="200"><defs><style type="text/css"></style></defs><path d="M869.3248 401.2544l-75.52-56.832s-80.2304-131.6352-278.8352-131.6352c-116.224 0-208.64 111.2576-213.4016 208.896-28.3136-3.0208-89.7536 2.6624-101.5296 58.6752-11.776 55.9616 25.9584 77.2608 75.7248 84.8896 42.5984 23.3472 32.768 99.1744 32.768 137.0624v128.8704h507.5968v-243.968s104.1408-23.3984 104.1408-96-50.944-89.9584-50.944-89.9584z" fill="#FFD578" p-id="2010"></path><path d="M951.04 480.3072c0-71.1168-55.3984-129.536-125.2864-134.5024-32.6144-144.7936-160.5632-248.1152-310.8864-248.1152-150.0672 0-278.3744 103.4752-310.9376 248.2688-68.9152 5.9392-123.2384 63.8976-123.2384 134.3488 0 62.976 43.4176 116.0192 101.888 130.7648v183.6544c0 38.4 26.7264 70.5536 62.5152 79.1552v12.544c0 16.9472 13.7728 30.72 30.72 30.72s30.72-13.7728 30.72-30.72v-10.24h418.048v10.24c0 16.9472 13.7728 30.72 30.72 30.72s30.72-13.7728 30.72-30.72v-12.8512c35.2256-8.96 61.44-40.9088 61.44-78.8992v-183.2448c59.2896-14.08 103.5776-67.5328 103.5776-131.1232z m-436.224-321.1776c120.0128 0 222.3616 81.5616 250.0608 196.4544-48.9984 20.224-83.6096 68.5056-83.6096 124.7232 0 1.7408 0.0512 3.4816 0.1536 5.2224-0.3584 1.8432-0.5632 3.7376-0.5632 5.6832v101.1712h-331.776V498.688c0.8192-5.9904 1.28-12.1344 1.28-18.3808 0-56.9344-35.4816-105.6768-85.4528-125.44 28.0064-114.3808 130.4064-195.7376 249.9072-195.7376z m-165.7344 494.7456h331.776v28.9792h-331.776v-28.9792z m-207.0016-173.568c0-40.4992 32.9216-73.4208 73.4208-73.4208s73.4208 32.9216 73.4208 73.4208c0 1.1776-0.1024 2.3552-0.1536 3.4816-0.7168 2.56-1.1264 5.2736-1.1264 8.0896v1.8432c-6.3488 34.0992-36.2496 60.0064-72.1408 60.0064-40.4992 0-73.4208-32.9216-73.4208-73.4208z m101.888 131.7888c15.7696-3.3792 30.464-9.5744 43.6736-17.9712v119.3984c0 16.9472 13.7728 30.72 30.72 30.72h393.216c16.9472 0 30.72-13.7728 30.72-30.72v-120.5248c13.1584 8.6528 27.8528 15.0016 43.6736 18.6368v182.9888c0 11.0592-9.0112 20.0704-20.0704 20.0704H264.0384c-11.0592 0-20.0704-9.0112-20.0704-20.0704v-182.528z m572.2112-58.368c-40.4992 0-73.4208-32.9216-73.4208-73.4208s32.9216-73.4208 73.4208-73.4208 73.4208 32.9216 73.4208 73.4208-32.9728 73.4208-73.4208 73.4208z" fill="#5D5D66" p-id="2011"></path></svg>