<?xml version="1.0" standalone="no"?><!DOCTYPE svg PUBLIC "-//W3C//DTD SVG 1.1//EN" "http://www.w3.org/Graphics/SVG/1.1/DTD/svg11.dtd"><svg t="1629879602966" class="icon" viewBox="0 0 1024 1024" version="1.1" xmlns="http://www.w3.org/2000/svg" p-id="1554" xmlns:xlink="http://www.w3.org/1999/xlink" width="200" height="200"><defs><style type="text/css"></style></defs><path d="M728.2688 889.6H370.176c-33.9456 0-61.44-27.4944-61.44-61.44V270.8992c0-33.9456 27.4944-61.44 61.44-61.44h358.0928c33.9456 0 61.44 27.4944 61.44 61.44v557.2608c0 33.9456-27.4944 61.44-61.44 61.44z" fill="#FFD578" p-id="1555"></path><path d="M728.2688 93.7984h-437.76c-50.7904 0-92.16 41.3184-92.16 92.16v642.2528c0 50.7904 41.3696 92.16 92.16 92.16h437.76c50.7904 0 92.16-41.3696 92.16-92.16V185.9584c0-50.8416-41.3184-92.16-92.16-92.16z m-437.7088 61.44h437.76c16.9472 0 30.72 13.7728 30.72 30.72V419.328h-499.2V185.9584c0-16.9472 13.7728-30.72 30.72-30.72z m437.7088 703.6416h-437.76c-16.9472 0-30.72-13.7728-30.72-30.72V480.768h499.2v347.4432c0 16.896-13.7728 30.6688-30.72 30.6688z" fill="#5D5D66" p-id="1556"></path><path d="M695.808 351.3856c16.9472 0 30.72-13.7728 30.72-30.72V255.9488c0-16.9472-13.7728-30.72-30.72-30.72s-30.72 13.7728-30.72 30.72v64.6656c0 16.9984 13.7728 30.7712 30.72 30.7712zM697.9072 595.3024c-16.9472 0-30.72 13.7728-30.72 30.72v72.3456c0 16.9472 13.7728 30.72 30.72 30.72s30.72-13.7728 30.72-30.72v-72.3456c0-16.9984-13.7728-30.72-30.72-30.72z" fill="#5D5D66" p-id="1557"></path></svg>