<?xml version="1.0" standalone="no"?><!DOCTYPE svg PUBLIC "-//W3C//DTD SVG 1.1//EN" "http://www.w3.org/Graphics/SVG/1.1/DTD/svg11.dtd"><svg t="1629644057257" class="icon" viewBox="0 0 1024 1024" version="1.1" xmlns="http://www.w3.org/2000/svg" p-id="2932" xmlns:xlink="http://www.w3.org/1999/xlink" width="200" height="200"><defs><style type="text/css"></style></defs><path d="M803.9936 892.5184H306.5344c-49.9712 0-90.5216-40.5504-90.5216-90.5216V449.024c0-49.9712 40.5504-90.5216 90.5216-90.5216h497.5104c49.9712 0 90.5216 40.5504 90.5216 90.5216v352.9728c-0.0512 49.9712-40.5504 90.5216-90.5728 90.5216zM720.5888 197.5296H392.2432c-10.9056 0-19.712 8.8064-19.712 19.712v69.7344h360.8064l-12.7488-89.4464z" fill="#FFB966" p-id="2933"></path><path d="M762.8288 244.7872h-5.376v-41.5744c0-58.88-47.9232-106.8032-106.8032-106.8032H372.8896c-58.88 0-106.8032 47.9232-106.8032 106.8032v41.5744h-4.0448c-89.5488 0-162.4064 72.8576-162.4064 162.4064v353.5872c0 89.5488 72.8576 162.4064 162.4064 162.4064h500.7872c89.5488 0 162.4064-72.8576 162.4064-162.4064V407.1936c0-89.5488-72.8576-162.4064-162.4064-162.4064z m-435.3024-41.5744c0-25.0368 20.3776-45.3632 45.3632-45.3632h277.76c25.0368 0 45.3632 20.3776 45.3632 45.3632v41.5744H327.5264v-41.5744zM262.0416 306.2272h500.7872c55.7056 0 100.9664 45.312 100.9664 100.9664v102.9632h-167.2192v-38.7072c0-16.9472-13.7728-30.72-30.72-30.72s-30.72 13.7728-30.72 30.72v38.7072H377.9072v-38.7072c0-16.9472-13.7728-30.72-30.72-30.72s-30.72 13.7728-30.72 30.72v38.7072H161.0752V407.1936c0-55.6544 45.2608-100.9664 100.9664-100.9664z m500.7872 555.5712H262.0416c-55.7056 0-100.9664-45.312-100.9664-100.9664v-189.184h155.4432v69.1712c0 16.9472 13.7728 30.72 30.72 30.72s30.72-13.7728 30.72-30.72v-69.1712h257.2288v69.1712c0 16.9472 13.7728 30.72 30.72 30.72s30.72-13.7728 30.72-30.72v-69.1712h167.2192v189.184c-0.0512 55.6544-45.312 100.9664-101.0176 100.9664z" fill="#5D5D66" p-id="2934"></path></svg>