<?xml version="1.0" standalone="no"?><!DOCTYPE svg PUBLIC "-//W3C//DTD SVG 1.1//EN" "http://www.w3.org/Graphics/SVG/1.1/DTD/svg11.dtd"><svg t="1629879738834" class="icon" viewBox="0 0 1024 1024" version="1.1" xmlns="http://www.w3.org/2000/svg" p-id="4616" xmlns:xlink="http://www.w3.org/1999/xlink" width="200" height="200"><defs><style type="text/css"></style></defs><path d="M858.5728 491.4688l5.12-277.8112-271.0528 16.9984c-9.472 0.6144-18.3808 4.6592-25.088 11.3664l-402.6368 405.8112 267.7248 251.4432 425.9328-407.808z" fill="#FFD578" p-id="4617"></path><path d="M556.2368 758.1184L477.184 837.1712c-22.1696 22.1696-58.2144 22.1696-80.3328 0L193.4848 633.856c-10.752-10.752-16.64-24.9856-16.64-40.192s5.888-29.44 16.64-40.192l79.0528-79.0528a30.72 30.72 0 0 0 0-43.4176 30.72 30.72 0 0 0-43.4176 0L150.016 510.0544c-22.3232 22.3232-34.6624 52.0192-34.6624 83.6096s12.288 61.2864 34.6624 83.6096L353.3824 880.64c23.04 23.04 53.3504 34.56 83.6096 34.56 30.2592 0 60.5696-11.52 83.6096-34.56l79.0528-79.0528a30.72 30.72 0 0 0 0-43.4176 30.6688 30.6688 0 0 0-43.4176-0.0512zM875.4688 145.3056a85.99552 85.99552 0 0 0-65.3824-24.1152l-257.3312 16.4864c-20.8896 1.3312-40.4992 10.24-55.296 25.0368L400.9984 259.1232a30.72 30.72 0 0 0 0 43.4176 30.72 30.72 0 0 0 43.4176 0l96.4096-96.4096c4.2496-4.1984 9.8304-6.7584 15.7696-7.1168l257.3824-16.4864c7.0144-0.4608 13.6192 1.9968 18.688 6.8608 5.0176 4.9152 7.68 11.4176 7.424 18.432l-9.0624 266.1376a24.576 24.576 0 0 1-7.168 16.5376l-96.1024 96.1024a30.72 30.72 0 0 0 21.7088 52.4288c7.8336 0 15.7184-3.0208 21.7088-9.0112l96.1024-96.1024a85.8624 85.8624 0 0 0 25.1392-57.856L901.4784 209.92c0.8704-24.2176-8.6528-47.7696-26.0096-64.6144zM208.4352 191.9488a30.72 30.72 0 0 0-43.4176 0 30.72 30.72 0 0 0 0 43.4176L797.4912 867.84a30.67392 30.67392 0 0 0 43.4176 0 30.72 30.72 0 0 0 0-43.4176L208.4352 191.9488z" fill="#5D5D66" p-id="4618"></path><path d="M738.3552 335.616a43.52 43.52 0 0 0-43.52-43.52 43.52 43.52 0 1 0 0 87.04c24.0128 0.0512 43.52-19.456 43.52-43.52z" fill="#5D5D66" p-id="4619"></path></svg>