<?xml version="1.0" standalone="no"?><!DOCTYPE svg PUBLIC "-//W3C//DTD SVG 1.1//EN" "http://www.w3.org/Graphics/SVG/1.1/DTD/svg11.dtd"><svg t="1629879638670" class="icon" viewBox="0 0 1024 1024" version="1.1" xmlns="http://www.w3.org/2000/svg" p-id="2470" xmlns:xlink="http://www.w3.org/1999/xlink" width="200" height="200"><defs><style type="text/css"></style></defs><path d="M775.2704 243.1488l-425.5744-4.9152S286.208 394.6496 274.2272 420.864c-11.9296 26.2144-14.8992 57.2416-48.2304 73.5744s-31.3856 58.0608-31.3856 81.3056v255.6416l103.1168-75.6736h427.4688s62.8224 80.0256 118.6816 80.0256 70.5536-74.9568 70.5536-140.6464 20.48-207.2064-20.5824-239.2064c-41.0624-32.0512-45.1072-48.9984-63.744-93.1328-18.5856-44.1344-54.8352-119.6032-54.8352-119.6032z" fill="#FFD578" p-id="2471"></path><path d="M937.8816 740.608v-222.3104c0-73.216-55.04-113.2544-80.64-127.8976l-59.4432-163.3792c-31.6928-95.1296-111.7696-95.3344-115.0976-95.3344h-167.168c-1.6384 0-3.2256 0.1024-4.7616 0.3584-1.536-0.256-3.1232-0.3584-4.7616-0.3584H338.944c-6.0928 0-84.0704 1.8944-115.2 95.3344L164.2496 390.4c-25.6 14.6432-80.64 54.7328-80.64 127.8976v222.3104c-0.4096 9.728-0.9728 62.3616 32 97.28 18.0224 19.0976 42.8544 29.184 71.8336 29.184 65.8432 0 99.8912-43.9808 113.9712-80.5888h418.6624c14.08 36.608 48.128 80.5888 113.9712 80.5888 28.928 0 53.76-10.0864 71.8336-29.184 32.9728-34.9184 32.4096-87.552 32-97.28z m-76.7488 55.1936c-4.0448 4.1984-11.2128 9.8304-27.0336 9.8304-48.6912 0-58.8288-45.568-60.3136-54.4768a30.76608 30.76608 0 0 0-30.3616-26.112H278.1696c-15.1552 0-28.1088 11.1104-30.3616 26.112-0.3584 2.2016-8.9088 54.4768-60.3136 54.4768-15.8208 0-23.04-5.5808-27.0336-9.8304-13.9264-14.592-15.8208-43.1104-15.36-52.6848 0.0512-0.5632 0.0512-1.1264 0.0512-1.7408v-223.0272c0-52.48 53.9648-77.0048 56.064-77.9264a30.8992 30.8992 0 0 0 16.7936-17.7152L281.6 247.6032c0.1024-0.3072 0.2048-0.5632 0.3072-0.8704 16.7424-50.688 52.5824-53.4528 57.0368-53.6064h167.0656c1.6384 0 3.2256-0.1024 4.7616-0.3584 1.536 0.256 3.1232 0.3584 4.7616 0.3584h167.0144c4.1472 0.1024 40.2432 2.6624 57.088 53.6064 0.1024 0.3072 0.2048 0.5632 0.3072 0.8704l63.6928 175.0016a31.24224 31.24224 0 0 0 16.5888 17.664c2.304 1.024 56.2688 25.4976 56.2688 78.0288v223.0272c0 0.4608 0 1.1264 0.0512 1.5872 0.3584 9.7792-1.4848 38.2976-15.4112 52.8896z" fill="#5D5D66" p-id="2472"></path><path d="M313.1904 424.704h393.7792a30.72 30.72 0 0 0 28.7744-41.472l-51.8144-138.0352a30.7456 30.7456 0 0 0-28.7744-19.9168H365.0048c-12.8 0-24.2688 7.936-28.7744 19.9168L284.416 383.1808a30.6688 30.6688 0 0 0 3.5328 28.3136 30.63808 30.63808 0 0 0 25.2416 13.2096zM386.2528 286.72h247.6032l28.7232 76.5952H357.5296L386.2528 286.72zM292.096 491.264c-48.6912 0-88.32 39.6288-88.32 88.32s39.6288 88.32 88.32 88.32 88.32-39.6288 88.32-88.32-39.6288-88.32-88.32-88.32z m0 115.2512c-14.848 0-26.88-12.0832-26.88-26.88s12.0832-26.88 26.88-26.88 26.88 12.0832 26.88 26.88-12.032 26.88-26.88 26.88zM730.7776 491.264c-48.6912 0-88.32 39.6288-88.32 88.32s39.6288 88.32 88.32 88.32 88.32-39.6288 88.32-88.32-39.5776-88.32-88.32-88.32z m0 115.2512c-14.848 0-26.88-12.0832-26.88-26.88s12.0832-26.88 26.88-26.88 26.88 12.0832 26.88 26.88-12.032 26.88-26.88 26.88z" fill="#5D5D66" p-id="2473"></path></svg>