<?xml version="1.0" standalone="no"?><!DOCTYPE svg PUBLIC "-//W3C//DTD SVG 1.1//EN" "http://www.w3.org/Graphics/SVG/1.1/DTD/svg11.dtd"><svg t="1629879728969" class="icon" viewBox="0 0 1024 1024" version="1.1" xmlns="http://www.w3.org/2000/svg" p-id="4308" xmlns:xlink="http://www.w3.org/1999/xlink" width="200" height="200"><defs><style type="text/css"></style></defs><path d="M550.656 555.776m-357.0688 0a357.0688 357.0688 0 1 0 714.1376 0 357.0688 357.0688 0 1 0-714.1376 0Z" fill="#4BE2AC" p-id="4309"></path><path d="M506.88 80.384c-237.9776 0-431.616 193.6384-431.616 431.616s193.6384 431.616 431.616 431.616 431.616-193.6384 431.616-431.616S744.8576 80.384 506.88 80.384z m0 801.792c-204.1344 0-370.176-166.0416-370.176-370.176S302.7968 141.824 506.88 141.824s370.176 166.0416 370.176 370.176-166.0416 370.176-370.176 370.176z" fill="#5D5D66" p-id="4310"></path><path d="M706.816 323.9424c-74.9056-10.752-133.5808 3.4816-174.4384 42.3424-13.2608 12.5952-23.4496 26.7776-31.2832 41.3696-58.4704-94.9248-149.1968-85.504-192.4608-81.0496-13.824 1.4336-24.9856 11.9808-27.1872 25.7536-9.216 57.9072 5.3248 112.6912 40.8576 154.368 35.4816 41.5744 89.6 66.304 153.8048 70.656v188.16c0 16.9472 13.7728 30.72 30.72 30.72s30.72-13.7728 30.72-30.72v-189.5936c62.5152-6.8608 113.152-30.0032 147.9168-67.9936 36.5568-39.8848 52.992-93.952 47.5136-156.2624a30.55104 30.55104 0 0 0-26.1632-27.7504z m-231.0656 191.7952c-45.8752-3.8912-82.4832-20.6336-106.6496-48.9472-18.944-22.1696-28.8256-50.432-28.8256-81.2032 48.5888-2.4576 104.96 8.9088 134.912 118.1696 0.2048 0.8192 0.512 1.6384 0.768 2.4576-0.1536 3.4304-0.2048 6.656-0.2048 9.5232z m164.5056-49.3568c-23.4496 25.5488-58.624 41.7792-103.0144 47.6672 0.3072-22.6816 4.9664-72.5504 37.7344-103.4752 20.224-19.0464 49.0496-28.672 85.9648-28.672 3.7888 0 7.6288 0.1024 11.5712 0.3072-1.28 33.9456-12.1344 62.208-32.256 84.1728z" fill="#5D5D66" p-id="4311"></path></svg>