<?xml version="1.0" standalone="no"?><!DOCTYPE svg PUBLIC "-//W3C//DTD SVG 1.1//EN" "http://www.w3.org/Graphics/SVG/1.1/DTD/svg11.dtd"><svg t="1629643269828" class="icon" viewBox="0 0 1024 1024" version="1.1" xmlns="http://www.w3.org/2000/svg" p-id="2012" xmlns:xlink="http://www.w3.org/1999/xlink" width="200" height="200"><defs><style type="text/css"></style></defs><path d="M322.9184 941.1072h397.4144c41.8304 0 83.8656-15.2576 83.8656-105.472v-281.0368c0-33.4848-8.0384-101.5296-48.5888-110.2336 36.3008-3.2256 79.7184-20.0192 79.7184-63.3856s-32.6656-63.3856-105.8816-63.3856c0-38.144 10.4448-94.1056-118.3232-94.1056 0-33.536-36.096-82.2272-94.9248-74.3936-50.5344 6.7584-34.304 46.6944-17.4592 60.7744 16.0256 13.4144 9.0112 96.5632-144.4352 88.2176-40.704 25.9584-121.9072 79.36-24.3712 146.2784 75.9808 5.6832 64.2048 15.4624 64.2048 15.4624s-75.8272 15.6672-75.8272 120.2688 4.608 361.0112 4.608 361.0112z" fill="#FFD578" p-id="2013"></path><path d="M866.0992 380.928c0-51.9168-42.24-94.1056-94.1056-94.1056h-16.8448c1.2288-5.2736 1.8944-10.752 1.8944-16.3328 0-42.9056-37.5808-77.7728-83.7632-77.7728h-26.112c1.28-6.8608 1.9456-13.824 1.9456-20.8896 0-66.6624-59.392-120.9344-132.4032-120.9344S384.3072 105.1136 384.3072 171.8272c0 7.0656 0.6656 14.08 1.9456 20.8896h-32.768c-46.1824 0-83.7632 34.9184-83.7632 77.7728 0 5.632 0.6656 11.0592 1.8944 16.3328h-16.8448c-51.9168 0-94.1056 42.24-94.1056 94.1056 0 37.6832 22.272 70.144 54.3232 85.1456a125.3888 125.3888 0 0 0-23.808 73.5744v306.0736c0 69.5296 56.576 126.0544 126.0544 126.0544h391.5776c69.5296 0 126.0544-56.576 126.0544-126.0544V539.648c0-27.3408-8.8064-52.6848-23.6544-73.3696 32.3584-14.848 54.8864-47.4624 54.8864-85.3504zM331.2128 270.4896c0-8.8576 10.24-16.3328 22.3232-16.3328h79.872a30.68416 30.68416 0 0 0 24.1152-49.7152c-7.68-9.728-11.776-21.0432-11.776-32.6144 0-32.8192 31.8464-59.4944 70.9632-59.4944s70.9632 26.6752 70.9632 59.4944c0 11.5712-4.0448 22.8352-11.776 32.6144a30.68416 30.68416 0 0 0 24.1152 49.7152h73.2672c12.0832 0 22.3232 7.4752 22.3232 16.3328s-10.24 16.3328-22.3232 16.3328H353.536c-12.1344 0-22.3232-7.4752-22.3232-16.3328zM254.8224 348.2624h517.1712c18.0224 0 32.6656 14.6432 32.6656 32.6656s-14.6432 32.6656-32.6656 32.6656H254.8224c-18.0224 0-32.6656-14.6432-32.6656-32.6656s14.6432-32.6656 32.6656-32.6656z m518.656 497.5104c0 35.6352-28.9792 64.6144-64.6144 64.6144H317.2864c-35.6352 0-64.6144-28.9792-64.6144-64.6144v-12.9536h156.8768c16.9472 0 30.72-13.7728 30.72-30.72s-13.7728-30.72-30.72-30.72H252.672v-53.3504h156.8768c16.9472 0 30.72-13.7728 30.72-30.72s-13.7728-30.72-30.72-30.72H252.672v-53.4016h215.7568c16.9472 0 30.72-13.7728 30.72-30.72s-13.7728-30.72-30.72-30.72H252.672v-2.048c0-35.6352 28.9792-64.6144 64.6144-64.6144h391.5776c35.6352 0 64.6144 28.9792 64.6144 64.6144v306.0736z" fill="#5D5D66" p-id="2014"></path></svg>