<?xml version="1.0" standalone="no"?><!DOCTYPE svg PUBLIC "-//W3C//DTD SVG 1.1//EN" "http://www.w3.org/Graphics/SVG/1.1/DTD/svg11.dtd"><svg t="1629879718744" class="icon" viewBox="0 0 1024 1024" version="1.1" xmlns="http://www.w3.org/2000/svg" p-id="3999" xmlns:xlink="http://www.w3.org/1999/xlink" width="200" height="200"><defs><style type="text/css"></style></defs><path d="M708.5568 306.5344c-44.288-40.0384-269.7216-97.4336-375.04 12.544s-68.096 221.7472-64.1536 288.4608-13.9776 168.3456-52.0704 216.5248c117.7088-5.4272 182.4256-8.6528 250.624 24.6784s269.9264 43.776 350.4128-62.4128 83.6096-203.264 35.4304-285.5936c-48.1792-82.3296-145.2032-194.2016-145.2032-194.2016z" fill="#FF94A4" p-id="4000"></path><path d="M535.8592 297.0624c-3.4816-1.0752-85.5552-25.2416-154.4192 12.288-37.9392 20.6848-64 55.2448-77.5168 102.6048-4.6592 16.3328 4.8128 33.3312 21.1456 37.9392a30.75072 30.75072 0 0 0 37.9904-21.1456c8.9088-31.2832 24.4736-52.6336 47.5648-65.3312 45.8752-25.2416 106.752-7.7824 107.52-7.5776 16.2304 4.864 33.28-4.3008 38.1952-20.5312 4.9664-16.1792-4.2496-33.3312-20.48-38.2464z" fill="#5D5D66" p-id="4001"></path><path d="M892.6208 374.0672a30.73024 30.73024 0 1 0-10.752-60.5184l-72.448 12.9024 75.9296-67.3792c12.6976-11.264 13.8752-30.6688 2.6112-43.3664-11.264-12.6976-30.6688-13.824-43.3664-2.6112L759.2448 288.768l28.0576-78.848a30.70464 30.70464 0 0 0-57.856-20.5824l-25.2416 70.9632c-53.0432-47.4112-104.4992-79.9744-155.7504-98.6624-102.912-37.5296-204.2368-19.2-301.2608 54.528-0.3584 0.256-0.7168 0.5632-1.024 0.8192-113.8176 94.5152-114.2784 299.0592-86.784 413.5424 10.3936 43.3664 1.2288 81.6128-7.68 118.6304-9.4208 39.0656-19.0976 79.5136-3.1744 120.832 4.7616 12.2368 16.7936 20.0192 29.8496 19.6096 13.1072-0.512 24.4736-9.3184 28.2112-21.9136 1.024-3.4816 5.4784-7.4752 12.1344-10.9568 29.3376-15.1552 98.9184-18.6368 182.3744 9.6768 71.936 24.3712 138.3424 36.6592 198.0416 36.6592 15.0016 0 29.6448-0.768 43.8272-2.3552 111.8208-12.288 194.8672-71.2704 246.8864-175.3088 60.5696-121.1904-3.4816-250.368-69.2224-338.5856l71.9872-12.7488z m-57.7536 323.9424c-71.1168 142.1824-210.432 179.3024-414.0544 110.2336-48.384-16.384-96.2048-24.6784-138.1888-24.6784-29.7472 0-56.576 4.1472-78.5408 12.544 1.8432-10.1376 4.4544-20.9408 7.2192-32.5632 9.6256-39.936 21.5552-89.6 7.68-147.3024-24.6272-102.6048-20.4288-279.2448 65.792-351.488 141.3632-107.0592 283.3408-72.0384 446.72 110.2848 63.488 70.8608 161.3312 207.0016 103.3728 322.9696z" fill="#5D5D66" p-id="4002"></path></svg>