<?xml version="1.0" standalone="no"?><!DOCTYPE svg PUBLIC "-//W3C//DTD SVG 1.1//EN" "http://www.w3.org/Graphics/SVG/1.1/DTD/svg11.dtd"><svg t="1629879699708" class="icon" viewBox="0 0 1024 1024" version="1.1" xmlns="http://www.w3.org/2000/svg" p-id="3392" xmlns:xlink="http://www.w3.org/1999/xlink" width="200" height="200"><defs><style type="text/css"></style></defs><path d="M733.2864 936.0384H370.8416c-47.5648 0-86.1696-38.5536-86.1696-86.1696v-319.3344c0-47.5648 38.5536-86.1696 86.1696-86.1696h362.4448c47.5648 0 86.1696 38.5536 86.1696 86.1696v319.3344c0 47.5648-38.6048 86.1696-86.1696 86.1696zM630.7328 266.0864H440.6784c-18.4832 0-33.4848-15.0016-33.4848-33.4848v-44.8512c0-18.4832 15.0016-33.4848 33.4848-33.4848h190.0544c18.4832 0 33.4848 15.0016 33.4848 33.4848v44.8512c-0.0512 18.4832-15.0016 33.4848-33.4848 33.4848z" fill="#80B7F9" p-id="3393"></path><path d="M710.6048 327.5264h-163.4304v-43.1616h68.9664c47.7696 0 86.5792-38.8608 86.5792-86.6304v-48.9984c0-47.7696-38.8608-86.6304-86.5792-86.6304h-206.848c-42.0864 0-77.2096 30.208-84.992 70.0416-43.1104-0.5632-134.3488 9.1648-173.1584 96.5632-6.912 15.5136 0.1024 33.6384 15.616 40.5504 4.0448 1.792 8.2944 2.6624 12.4416 2.6624 11.776 0 22.9888-6.8096 28.1088-18.2784 24.2176-54.4768 85.7088-60.5696 115.4048-60.16v4.2496c0 47.7696 38.8608 86.6304 86.6304 86.6304h76.4928v43.1616H322.3552c-87.2448 0-158.1568 70.9632-158.1568 158.1568v322.8672c0 87.2448 70.9632 158.1568 158.1568 158.1568h388.2496c87.2448 0 158.1568-70.9632 158.1568-158.1568V485.6832c0-87.1936-70.9632-158.1568-158.1568-158.1568zM384.1024 197.7856v-48.9984a25.2416 25.2416 0 0 1 25.1904-25.1904h206.848c13.8752 0 25.1392 11.3152 25.1392 25.1904v48.9984c0 13.8752-11.264 25.1904-25.1392 25.1904h-206.848c-13.8752-0.0512-25.1904-11.3152-25.1904-25.1904zM322.3552 388.9664h388.2496c53.3504 0 96.7168 43.4176 96.7168 96.7168v169.3184c-41.6768-36.4032-88.4736-56.576-139.7248-60.1088-86.6304-5.9904-154.9312 37.9904-172.032 53.8624l-3.1744 2.9696c-19.968 18.688-42.5984 39.8336-118.4256 39.8336-79.6672 0-139.2128-43.9808-140.2368-44.7488-2.56-1.9456-5.2736-3.3792-8.1408-4.4544v-156.672c0-53.3504 43.4176-96.7168 96.768-96.7168z m388.2496 516.352H322.3552c-53.3504 0-96.7168-43.4176-96.7168-96.7168v-94.6176c30.8224 16.7936 83.8144 39.0656 148.3776 39.0656 100.096 0 136.3968-33.9456 160.4096-56.4224l2.9696-2.7648c7.6288-7.0656 60.2112-42.1888 126.0544-37.632 50.1248 3.4304 95.488 29.5936 134.8608 77.6704 2.6112 3.1744 5.6832 5.6832 9.0624 7.4752v67.1744c-0.0512 53.3504-43.4176 96.768-96.768 96.768z" fill="#5D5D66" p-id="3394"></path></svg>