<?xml version="1.0" standalone="no"?><!DOCTYPE svg PUBLIC "-//W3C//DTD SVG 1.1//EN" "http://www.w3.org/Graphics/SVG/1.1/DTD/svg11.dtd"><svg t="1629879759492" class="icon" viewBox="0 0 1024 1024" version="1.1" xmlns="http://www.w3.org/2000/svg" p-id="5224" xmlns:xlink="http://www.w3.org/1999/xlink" width="200" height="200"><defs><style type="text/css"></style></defs><path d="M821.4016 276.8896s-149.9136-116.6848-341.8112-71.424c-222.208 52.3776-265.3696 234.1888-265.3696 319.7952 0 168.9088 76.4928 337.5104 284.5184 379.648 142.9504 17.0496 318.1568-125.1328 318.1568-125.1328l-240.2304-265.8816 244.736-237.0048z" fill="#FF94A4" p-id="5225"></path><path d="M821.4016 525.2608m-64.4096 0a64.4096 64.4096 0 1 0 128.8192 0 64.4096 64.4096 0 1 0-128.8192 0Z" fill="#FF94A4" p-id="5226"></path><path d="M619.4176 515.2256c31.7952-30.5664 65.8432-62.3104 98.9696-93.184 50.8416-47.4112 98.8672-92.2112 138.0352-131.7888 10.9568-11.1104 11.8784-28.672 2.0992-40.8576-80.7936-100.6592-201.0112-158.3616-329.9328-158.3616-233.1648 0-422.8608 189.696-422.8608 422.8608s189.696 422.8608 422.8608 422.8608c117.6576 0 230.9632-49.6128 310.8352-136.1408 10.752-11.6224 10.8544-29.5424 0.3072-41.3184-62.1568-69.4784-146.5856-162.9184-220.3136-244.0704z m-90.7776 360.0384c-199.2704 0-361.4208-162.1504-361.4208-361.4208s162.1504-361.4208 361.4208-361.4208c100.9664 0 195.7376 41.4208 263.9872 114.5856-34.304 33.6896-74.2912 70.9632-116.1728 110.08-40.9088 38.144-83.1488 77.568-121.2928 114.7904a30.69952 30.69952 0 0 0-1.2288 42.6496c70.8096 77.824 155.0336 170.9568 220.672 244.0704-66.56 61.7472-154.7264 96.6656-245.9648 96.6656z" fill="#5D5D66" p-id="5227"></path><path d="M441.4464 356.608h-39.936v-39.936c0-16.9472-13.7728-30.72-30.72-30.72s-30.72 13.7728-30.72 30.72v39.936h-39.936c-16.9472 0-30.72 13.7728-30.72 30.72s13.7728 30.72 30.72 30.72h39.936v39.936c0 16.9472 13.7728 30.72 30.72 30.72s30.72-13.7728 30.72-30.72v-39.936h39.936c16.9472 0 30.72-13.7728 30.72-30.72s-13.7728-30.72-30.72-30.72zM821.4016 430.1312c-52.4288 0-95.1296 42.6496-95.1296 95.1296 0 52.4288 42.6496 95.1296 95.1296 95.1296 52.4288 0 95.1296-42.6496 95.1296-95.1296 0-52.4288-42.7008-95.1296-95.1296-95.1296z m0 128.8192c-18.5856 0-33.6896-15.104-33.6896-33.6896s15.104-33.6896 33.6896-33.6896 33.6896 15.104 33.6896 33.6896-15.104 33.6896-33.6896 33.6896z" fill="#5D5D66" p-id="5228"></path></svg>