<?xml version="1.0" standalone="no"?><!DOCTYPE svg PUBLIC "-//W3C//DTD SVG 1.1//EN" "http://www.w3.org/Graphics/SVG/1.1/DTD/svg11.dtd"><svg t="1629879704517" class="icon" viewBox="0 0 1024 1024" version="1.1" xmlns="http://www.w3.org/2000/svg" p-id="3542" xmlns:xlink="http://www.w3.org/1999/xlink" width="200" height="200"><defs><style type="text/css"></style></defs><path d="M751.5648 899.6864h-420.352c-26.2656 0-47.616-21.2992-47.616-47.616V373.6576c0-26.2656 21.2992-47.616 47.616-47.616h420.4032c26.2656 0 47.616 21.2992 47.616 47.616v478.464a47.65696 47.65696 0 0 1-47.6672 47.5648z" fill="#4BE2AC" p-id="3543"></path><path d="M699.8528 209.7152h-59.392V129.536c0-39.424-32.0512-71.4752-71.4752-71.4752H423.0144c-39.424 0-71.4752 32.0512-71.4752 71.4752v80.1792H293.2736c-71.7312 0-130.048 58.368-130.048 130.048v460.5952c0 71.7312 58.368 130.048 130.048 130.048h64.8192v8.4992c0 16.9472 13.7728 30.72 30.72 30.72s30.72-13.7728 30.72-30.72v-8.4992h152.9344v8.4992c0 16.9472 13.7728 30.72 30.72 30.72s30.72-13.7728 30.72-30.72v-8.4992h65.8944c71.7312 0 130.048-58.368 130.048-130.048V339.7632c0.0512-71.7312-58.2656-130.048-129.9968-130.048zM413.0304 129.536c0-5.5296 4.5056-10.0352 10.0352-10.0352h145.9712c5.5296 0 10.0352 4.5056 10.0352 10.0352v80.1792H413.0304V129.536z m355.4304 670.8224c0 37.8368-30.7712 68.608-68.608 68.608h-406.528c-37.8368 0-68.608-30.7712-68.608-68.608V339.7632c0-37.8368 30.7712-68.608 68.608-68.608h406.5792c37.8368 0 68.608 30.7712 68.608 68.608v460.5952z" fill="#5D5D66" p-id="3544"></path><path d="M382.3104 389.9904c-16.9472 0-30.72 13.7728-30.72 30.72v304.9984c0 16.9472 13.7728 30.72 30.72 30.72s30.72-13.7728 30.72-30.72V420.7104c0-16.9472-13.7728-30.72-30.72-30.72zM603.2384 389.9904c-16.9472 0-30.72 13.7728-30.72 30.72v304.9984c0 16.9472 13.7728 30.72 30.72 30.72s30.72-13.7728 30.72-30.72V420.7104c0-16.9472-13.7728-30.72-30.72-30.72z" fill="#5D5D66" p-id="3545"></path></svg>