<?xml version="1.0" standalone="no"?><!DOCTYPE svg PUBLIC "-//W3C//DTD SVG 1.1//EN" "http://www.w3.org/Graphics/SVG/1.1/DTD/svg11.dtd"><svg t="1629879595480" class="icon" viewBox="0 0 1024 1024" version="1.1" xmlns="http://www.w3.org/2000/svg" p-id="1399" xmlns:xlink="http://www.w3.org/1999/xlink" width="200" height="200"><defs><style type="text/css"></style></defs><path d="M866.4576 255.9488s-121.8048-50.8928-245.1456-26.6752c-13.4144 2.6624-21.0432 16.9472-15.4624 29.44 53.0432 119.6544 61.184 152.6272 61.184 152.6272l-39.2192 472.2688h161.2288l-16.128-478.3616 93.5424-149.2992zM299.264 182.016S247.9104 259.1232 285.5424 391.168c-14.6432 24.832-56.4736 40.4992-56.4736 134.656V783.36c0 16.9984 1.3312 72.2432 24.832 86.272 23.552 14.0288 158.1568 0 158.1568 0l30.72-60.6208-15.0528-367.1552-52.6336-75.52s-4.9152-165.888-75.8272-184.32z" fill="#FF94A4" p-id="1400"></path><path d="M405.76 384.256c1.536-208.2304-81.1008-251.4944-131.072-277.7088l-0.8704-0.4608a30.83776 30.83776 0 0 0-28.5184 0c-40.8064 21.4016-67.072 71.4752-78.08 148.8384-0.1024 0.5632-0.1536 1.1776-0.2048 1.7408-3.9936 47.7184-0.4096 100.4032 4.1472 140.9536-29.1328 22.4768-47.9232 57.7024-47.9232 97.28v296.5504c0 67.7376 55.1424 122.88 122.88 122.88h106.24c67.7376 0 122.88-55.1424 122.88-122.88V494.8992c0-48.5888-28.3648-90.7264-69.4784-110.6432z m-164.3008-12.2368c-3.7376 0-7.424 0.1536-11.1104 0.512-3.1744-33.9456-5.12-73.7792-2.1504-109.824 6.2976-43.5712 18.3296-76.2368 33.9968-93.0304 38.3488 22.272 81.152 62.1056 82.176 202.3424h-102.912z m172.3392 419.4816c0 33.8944-27.5456 61.44-61.44 61.44H246.1696c-33.8944 0-61.44-27.5456-61.44-61.44V494.8992c0-33.8944 27.5456-61.44 61.44-61.44h106.24c33.8944 0 61.44 27.5456 61.44 61.44v296.6016z" fill="#5D5D66" p-id="1401"></path><path d="M237.312 485.8368c-16.9472 0-30.72 13.7728-30.72 30.72v254.0544c0 16.9472 13.7728 30.72 30.72 30.72s30.72-13.7728 30.72-30.72v-254.0544c0-16.9984-13.7728-30.72-30.72-30.72zM809.1136 420.2496l115.9168-207.1552c7.3216-13.1072 4.096-29.5936-7.6288-38.9632-3.584-2.8672-89.088-70.0928-229.9392-70.0928-140.6976 0-227.1744 66.7136-230.8096 69.5296a30.6944 30.6944 0 0 0-7.936 38.9632l114.1248 207.5136c2.4064 4.352 5.7856 7.8848 9.728 10.5984l-7.0656 70.656c-0.4608 2.1504-0.7168 4.352-0.7168 6.656v0.512l-32.8704 327.9872c-2.0992 20.8896 4.7616 41.8304 18.8928 57.3952 14.08 15.5648 34.2016 24.5248 55.1936 24.5248h149.0432c20.8384 0 40.9088-8.8064 54.9888-24.2176 14.08-15.4112 21.0944-36.1472 19.2-56.9344l-36.352-403.0976a31.1808 31.1808 0 0 0 16.2304-13.8752z m-292.7104-212.1728c29.952-16.6912 89.5488-42.5984 171.0592-42.5984 80.5376 0 139.9808 26.0608 169.8304 42.8032l-92.0576 164.5056c-1.9968-0.4096-3.9936-0.6144-6.0928-0.6144h-21.6576l10.496-45.4656a30.77632 30.77632 0 0 0-23.04-36.864 30.77632 30.77632 0 0 0-36.864 23.04l-6.656 28.928-7.4752-30.1056a30.70464 30.70464 0 0 0-37.2224-22.4256c-16.4864 4.096-26.5216 20.736-22.4256 37.2224l11.3152 45.7216h-19.0464l-90.1632-164.1472z m218.624 269.1584h-105.3696l4.1472-41.2672h97.4848l3.7376 41.2672z m29.6448 375.3984c-1.4336 1.5872-4.608 4.2496-9.6256 4.2496h-149.0432c-5.0176 0-8.192-2.6624-9.6768-4.3008-1.4336-1.5872-3.7888-5.0176-3.328-10.0352l30.464-303.872h117.0432l27.4432 303.9744c0.512 5.0176-1.8432 8.3968-3.2768 9.984z" fill="#5D5D66" p-id="1402"></path></svg>