<?xml version="1.0" standalone="no"?><!DOCTYPE svg PUBLIC "-//W3C//DTD SVG 1.1//EN" "http://www.w3.org/Graphics/SVG/1.1/DTD/svg11.dtd"><svg t="1629643204524" class="icon" viewBox="0 0 1024 1024" version="1.1" xmlns="http://www.w3.org/2000/svg" p-id="1859" xmlns:xlink="http://www.w3.org/1999/xlink" width="200" height="200"><defs><style type="text/css"></style></defs><path d="M846.3872 324.5056c-61.44-71.8848-260.1472-179.0976-469.2992-58.8288-197.632 113.664-216.9856 406.528-69.2736 558.1824 139.8784 96.7168 266.496 82.0224 274.432 46.848 7.936-35.1232-44.3392-113.2032-23.4496-148.6848s74.5984-34.2016 132.0448-27.648c57.4976 6.5536 174.3872-33.6896 204.8-117.504s-15.36-212.736-49.2544-252.3648z" fill="#88B8FB" p-id="1860"></path><path d="M929.3312 407.7568c-0.1536-0.6656-0.3584-1.28-0.5632-1.8944-30.0544-92.16-132.9664-258.4576-328.3456-297.0624-62.72-11.9296-278.3232-35.9424-419.7888 156.5184-139.4688 189.7472-86.6304 429.8752 45.0048 552.3456 59.4944 55.3472 131.4304 94.7712 202.7008 111.0016 23.2448 5.3248 45.3632 7.8848 65.792 7.8848 40.8064 0 74.8544-10.4448 97.5872-30.6688 17.2544-14.7456 51.712-56.4224 8.96-130.9696-15.4624-26.9312-14.8992-39.8848-12.4416-42.9568 8.3456-10.496 13.3632-16.7936 51.4048-9.984 53.4016 9.6256 139.0592-2.048 190.8736-25.9584 0.1536-0.0512 0.3072-0.1536 0.4608-0.2048 52.8896-25.4976 141.6704-118.5792 98.3552-288.0512z m-125.0816 232.7552c-43.8272 20.0192-117.1968 27.648-153.8048 21.0432-44.544-7.9872-80.384-5.5808-110.3872 32.256-21.9136 27.5968-19.456 65.1776 7.2704 111.7696 22.1696 38.7072 8.7552 50.0224 4.352 53.7088-0.256 0.2048-0.4608 0.4096-0.7168 0.6144-34.048 30.5664-167.5264 20.6848-283.4944-87.1936-111.9232-104.1408-156.5184-308.7872-37.3248-470.9888C315.5968 185.4464 433.664 162.304 514.048 162.304c32.7168 0 59.1872 3.84 74.6496 6.7584 166.656 32.9216 255.0784 175.2064 281.344 254.8736 40.0896 158.6176-58.7776 212.9408-65.792 216.576z" fill="#5D5D66" p-id="1861"></path><path d="M342.528 301.4656c-48.0768 0-87.1424 39.1168-87.1424 87.1424s39.1168 87.1424 87.1424 87.1424c48.0768 0 87.1424-39.1168 87.1424-87.1424S390.6048 301.4656 342.528 301.4656z m0 112.896c-14.1824 0-25.7024-11.52-25.7024-25.7024s11.52-25.7024 25.7024-25.7024c14.1824 0 25.7024 11.52 25.7024 25.7024s-11.52 25.7024-25.7024 25.7024zM572.5184 209.7152c-48.0768 0-87.1424 39.1168-87.1424 87.1424 0 48.0768 39.1168 87.1424 87.1424 87.1424 48.0768 0 87.1424-39.1168 87.1424-87.1424 0-48.0768-39.1168-87.1424-87.1424-87.1424z m0 112.896c-14.1824 0-25.7024-11.52-25.7024-25.7024 0-14.1824 11.52-25.7024 25.7024-25.7024 14.1824 0 25.7024 11.52 25.7024 25.7024a25.7536 25.7536 0 0 1-25.7024 25.7024zM738.1504 394.8544c-48.0768 0-87.1424 39.1168-87.1424 87.1424 0 48.0768 39.1168 87.1424 87.1424 87.1424 48.0768 0 87.1424-39.1168 87.1424-87.1424 0-48.0256-39.0656-87.1424-87.1424-87.1424z m0 112.896c-14.1824 0-25.7024-11.52-25.7024-25.7024 0-14.1824 11.52-25.7024 25.7024-25.7024 14.1824 0 25.7024 11.52 25.7024 25.7024a25.7536 25.7536 0 0 1-25.7024 25.7024zM333.568 541.4912c-48.0768 0-87.1424 39.1168-87.1424 87.1424 0 48.0768 39.1168 87.1424 87.1424 87.1424 48.0768 0 87.1424-39.1168 87.1424-87.1424 0-48.0256-39.1168-87.1424-87.1424-87.1424z m0 112.896c-14.1824 0-25.7024-11.52-25.7024-25.7024 0-14.1824 11.52-25.7024 25.7024-25.7024 14.1824 0 25.7024 11.52 25.7024 25.7024 0 14.1824-11.52 25.7024-25.7024 25.7024z" fill="#5D5D66" p-id="1862"></path></svg>