<?xml version="1.0" standalone="no"?><!DOCTYPE svg PUBLIC "-//W3C//DTD SVG 1.1//EN" "http://www.w3.org/Graphics/SVG/1.1/DTD/svg11.dtd"><svg t="1629642824405" class="icon" viewBox="0 0 1024 1024" version="1.1" xmlns="http://www.w3.org/2000/svg" p-id="1399" xmlns:xlink="http://www.w3.org/1999/xlink" width="200" height="200"><defs><style type="text/css"></style></defs><path d="M916.2752 324.1984l-227.4816-134.656S650.24 346.0096 512 347.6992c-104.9088 1.3312-152.9344-83.6608-152.9344-83.6608l-18.1248-1.1776-132.608 71.5776 39.936 69.4784s70.656-18.2784 70.656 50.9952v429.2096s308.4288 29.6448 440.4736-12.1856c9.984-236.5952 5.2224-405.248 5.2224-405.248l57.4976 16.9984 94.1568-159.488z" fill="#80B7F9" p-id="1400"></path><path d="M963.2768 291.072a30.8736 30.8736 0 0 0-14.336-18.7392L711.1168 135.168c-4.6592-2.7136-9.984-4.096-15.36-4.096h-78.1824a30.7712 30.7712 0 0 0-30.72 29.6448c-1.4848 41.0624-34.816 73.2672-75.9296 73.2672s-74.4448-32.1536-75.9296-73.2672a30.7712 30.7712 0 0 0-30.72-29.6448H330.8032c-5.376 0-10.7008 1.4336-15.36 4.096L77.6192 272.384c-7.0656 4.096-12.2368 10.8032-14.336 18.7392s-0.9728 16.3328 3.1744 23.3472l112.8448 193.3312a30.7968 30.7968 0 0 0 19.7632 14.4896c8.2944 1.8944 16.9984 0.2048 24.064-4.5568l3.3792-2.304v345.1392c0 14.2848 9.8304 26.6752 23.7056 29.9008 4.608 1.0752 114.8928 26.4704 260.1984 26.4704 172.4928 0 263.7312-25.7536 267.52-26.88a30.70464 30.70464 0 0 0 22.2208-29.4912v-345.1392l3.3792 2.304c7.0144 4.8128 15.7184 6.4512 24.064 4.5568a30.7968 30.7968 0 0 0 19.7632-14.4896l112.8448-193.3312a31.0784 31.0784 0 0 0 3.072-23.3984z m-152.4736 157.3376l-24.1664-16.4352a30.70976 30.70976 0 0 0-47.9744 25.3952v378.8288c-35.2768 7.168-112.128 19.3536-228.3008 19.3536-99.6352 0-183.3472-12.8512-222.464-20.0704V457.3696a30.70976 30.70976 0 0 0-47.9744-25.3952l-24.1664 16.4352-80.64-138.24L339.0464 192.512h38.8608c15.2576 59.5968 68.9664 102.8608 133.0688 102.8608s117.8112-43.3152 133.0688-102.8608h43.4688l203.9296 117.6576-80.64 138.24z" fill="#5D5D66" p-id="1401"></path><path d="M354.7648 489.4208c-16.9472 0-30.72 13.7728-30.72 30.72v217.1904c0 16.9472 13.7728 30.72 30.72 30.72s30.72-13.7728 30.72-30.72v-217.1904c0-16.9472-13.7728-30.72-30.72-30.72z" fill="#5D5D66" p-id="1402"></path></svg>