<?xml version="1.0" standalone="no"?><!DOCTYPE svg PUBLIC "-//W3C//DTD SVG 1.1//EN" "http://www.w3.org/Graphics/SVG/1.1/DTD/svg11.dtd"><svg t="1629879743803" class="icon" viewBox="0 0 1024 1024" version="1.1" xmlns="http://www.w3.org/2000/svg" p-id="4769" xmlns:xlink="http://www.w3.org/1999/xlink" width="200" height="200"><defs><style type="text/css"></style></defs><path d="M709.7344 366.3872H253.184a21.5552 21.5552 0 0 1-21.5552-21.5552V210.1248a21.5552 21.5552 0 0 1 21.5552-21.5552h456.4992a21.5552 21.5552 0 0 1 21.5552 21.5552v134.7072a21.4784 21.4784 0 0 1-21.504 21.5552zM577.3824 899.328H502.2208c-7.936 0-14.3872-6.4512-14.3872-14.3872V701.952c0-7.936 6.4512-14.3872 14.3872-14.3872h75.1104c7.936 0 14.3872 6.4512 14.3872 14.3872v182.9888a14.32576 14.32576 0 0 1-14.336 14.3872z" fill="#FF94A4" p-id="4770"></path><path d="M818.176 214.8352h-56.1664v-34.6624c0-48.7424-39.6288-88.3712-88.3712-88.3712H221.952c-48.7424 0-88.3712 39.6288-88.3712 88.3712V308.736c0 48.7424 39.6288 88.3712 88.3712 88.3712h451.6352c48.7424 0 88.3712-39.6288 88.3712-88.3712v-32.4608h56.1664c2.9184 0 5.2736 2.3552 5.2736 5.2736v175.2576c0 2.9184-2.3552 5.2736-5.2736 5.2736h-280.7296c-30.72 0-55.7056 24.9856-55.7056 55.7056v80.1792h-19.2c-32.3072 0-58.624 26.3168-58.624 58.624v214.8864c0 32.3072 26.2656 58.624 58.624 58.624h101.3248c32.3072 0 58.624-26.3168 58.624-58.624v-214.8864c0-32.3072-26.3168-58.624-58.624-58.624h-20.6848v-74.4448h275.0464c36.7616 0 66.7136-29.9008 66.7136-66.7136V281.5488c0-36.8128-29.9008-66.7136-66.7136-66.7136zM700.5696 308.736c0 14.848-12.0832 26.9312-26.9312 26.9312H221.952c-14.848 0-26.9312-12.0832-26.9312-26.9312V180.1216c0-14.848 12.0832-26.9312 26.9312-26.9312h451.6352c14.848 0 26.9312 12.0832 26.9312 26.9312V308.736z m-139.52 559.872H465.3568v-209.2544h95.6928v209.2544z" fill="#5D5D66" p-id="4771"></path></svg>