<?xml version="1.0" standalone="no"?><!DOCTYPE svg PUBLIC "-//W3C//DTD SVG 1.1//EN" "http://www.w3.org/Graphics/SVG/1.1/DTD/svg11.dtd"><svg t="1629645041779" class="icon" viewBox="0 0 1024 1024" version="1.1" xmlns="http://www.w3.org/2000/svg" p-id="3852" xmlns:xlink="http://www.w3.org/1999/xlink" width="200" height="200"><defs><style type="text/css"></style></defs><path d="M885.0944 307.0976L780.2368 364.032v-4.864c0-45.3632-36.8128-82.176-82.176-82.176H295.0144c-45.3632 0-82.176 36.8128-82.176 82.176v373.1968c0 45.3632 36.8128 82.176 82.176 82.176h403.0464c45.3632 0 82.176-36.8128 82.176-82.176v-74.5472l96 43.3152 44.6976-16.5888V328.704l-35.84-21.6064z" fill="#A5ADF6" p-id="3853"></path><path d="M571.8016 440.5248L458.9568 375.3472c-22.9888-13.2608-50.4832-13.2608-73.5232 0-22.9888 13.2608-36.7616 37.0688-36.7616 63.6416v130.3552c0 26.5728 13.7216 50.3808 36.7616 63.6416 11.52 6.656 24.1152 9.984 36.7616 9.984s25.2416-3.328 36.7616-9.984l112.8448-65.1776c22.9888-13.2608 36.7616-37.0688 36.7616-63.6416 0-26.5728-13.7216-50.3808-36.7616-63.6416z m-30.72 74.0864l-112.8448 65.1776c-5.2224 3.0208-9.8304 1.28-12.0832 0-2.2528-1.28-6.0416-4.4032-6.0416-10.4448V438.9888c0-6.0416 3.7888-9.1648 6.0416-10.4448 1.3312-0.768 3.4816-1.6896 6.0416-1.6896 1.792 0 3.84 0.4608 5.9904 1.6896l112.8448 65.1776c5.2224 3.0208 6.0416 7.8336 6.0416 10.4448 0.0512 2.6112-0.7168 7.424-5.9904 10.4448z" fill="#5D5D66" p-id="3854"></path><path d="M920.0128 287.2832c-25.344-14.6432-55.6032-14.6432-80.9472 0l-28.16 16.2304V275.968c0-62.2592-50.6368-112.896-112.896-112.896H191.3856c-62.2592 0-112.896 50.6368-112.896 112.896v456.3968c0 62.2592 50.6368 112.896 112.896 112.896h506.6752c62.2592 0 112.896-50.6368 112.896-112.896v-27.5456l28.16 16.2304c12.6464 7.3216 26.5728 10.9568 40.448 10.9568s27.8016-3.6352 40.448-10.9568c25.344-14.6432 40.448-40.8064 40.448-70.0928V357.376c0.0512-29.2864-15.104-55.5008-40.448-70.0928z m-170.496 445.0816c0 28.3648-23.0912 51.456-51.456 51.456H191.3856c-28.3648 0-51.456-23.0912-51.456-51.456V275.968c0-28.3648 23.0912-51.456 51.456-51.456h506.6752c28.3648 0 51.456 23.0912 51.456 51.456v456.3968z m149.5552-81.3568c0 10.1376-6.8096 15.2064-9.728 16.896-2.9184 1.6896-10.7008 5.0688-19.5072 0l-58.88-33.9968V374.4768l58.88-33.9968c8.8064-5.0688 16.5888-1.6896 19.5072 0 2.9184 1.6896 9.728 6.7072 9.728 16.896v293.632z" fill="#5D5D66" p-id="3855"></path><path d="M244.8384 246.3232c-42.0352 0-76.2368 34.2016-76.2368 76.2368s34.2016 76.2368 76.2368 76.2368S321.0752 364.5952 321.0752 322.56s-34.2016-76.2368-76.2368-76.2368z m0 91.0336c-8.192 0-14.7968-6.656-14.7968-14.7968 0-8.192 6.656-14.7968 14.7968-14.7968s14.7968 6.656 14.7968 14.7968-6.656 14.7968-14.7968 14.7968z" fill="#5D5D66" p-id="3856"></path></svg>