<?xml version="1.0" standalone="no"?><!DOCTYPE svg PUBLIC "-//W3C//DTD SVG 1.1//EN" "http://www.w3.org/Graphics/SVG/1.1/DTD/svg11.dtd"><svg t="1629903991406" class="icon" viewBox="0 0 1024 1024" version="1.1" xmlns="http://www.w3.org/2000/svg" p-id="1397" xmlns:xlink="http://www.w3.org/1999/xlink" width="200" height="200"><defs><style type="text/css"></style></defs><path d="M805.4272 448.9728c32.6656-40.7552 30.1056-100.4032-7.68-138.1888-37.7856-37.7856-97.4336-40.3456-138.1888-7.68-5.7344-51.9168-49.7152-92.3136-103.168-92.3136-53.4528 0-97.4336 40.3968-103.168 92.3136-40.7552-32.6656-100.4032-30.1056-138.1888 7.68-37.7856 37.7856-40.3456 97.4336-7.68 138.1888C255.4368 454.7072 215.04 498.688 215.04 552.1408c0 53.4528 40.3968 97.4336 92.3136 103.168-32.6656 40.7552-30.1056 100.4032 7.68 138.1888 37.7856 37.7856 97.4336 40.3456 138.1888 7.68 5.7344 51.9168 49.7152 92.3136 103.168 92.3136 53.4528 0 97.4336-40.3968 103.168-92.3136 40.7552 32.6656 100.4032 30.1056 138.1888-7.68 37.7856-37.7856 40.3456-97.4336 7.68-138.1888 51.9168-5.7344 92.3136-49.7152 92.3136-103.168 0-53.4528-40.3968-97.4336-92.3136-103.168z" fill="#FF94A4" p-id="1398"></path><path d="M928.4608 508.9792c0-60.16-35.9424-112.4352-88.4736-135.3216a147.5584 147.5584 0 0 0-33.1264-158.2592 147.46624 147.46624 0 0 0-158.2592-33.1264c-22.8864-52.5312-75.2128-88.4736-135.3216-88.4736S400.8448 129.7408 377.9584 182.272a147.5584 147.5584 0 0 0-158.2592 33.1264 147.46624 147.46624 0 0 0-33.1264 158.2592c-52.5312 22.8864-88.4736 75.2128-88.4736 135.3216s35.9424 112.4352 88.4736 135.3216a147.5584 147.5584 0 0 0 33.1264 158.2592 147.3536 147.3536 0 0 0 158.2592 33.1264 147.4816 147.4816 0 0 0 135.3216 88.4736c60.16 0 112.4352-35.9424 135.3216-88.4736 53.3504 20.992 115.712 9.3696 158.2592-33.1264a147.36896 147.36896 0 0 0 33.1264-158.2592 147.42528 147.42528 0 0 0 88.4736-135.3216z m-138.0352 85.6576a30.7712 30.7712 0 0 0-25.0368 18.7904c-4.3008 10.3424-2.6112 22.2208 4.4032 30.976 27.4944 34.304 24.7296 83.6096-6.4 114.7392a86.0416 86.0416 0 0 1-114.7392 6.4 30.68416 30.68416 0 0 0-30.976-4.4032 30.7712 30.7712 0 0 0-18.7904 25.0368c-4.8128 43.6736-41.6256 76.5952-85.6576 76.5952s-80.8448-32.9216-85.6576-76.5952a30.7712 30.7712 0 0 0-30.5152-27.392c-6.8608 0-13.6704 2.304-19.2 6.7584-34.304 27.4944-83.6096 24.7296-114.7392-6.4-31.1296-31.1296-33.8944-80.4352-6.4-114.7392 7.0144-8.7552 8.704-20.6336 4.4032-30.976a30.7712 30.7712 0 0 0-25.0368-18.7904c-43.6736-4.8128-76.5952-41.6256-76.5952-85.6576s32.9216-80.8448 76.5952-85.6576A30.7712 30.7712 0 0 0 261.12 404.5312c4.3008-10.3424 2.6112-22.2208-4.4032-30.976-27.4944-34.304-24.7296-83.6096 6.4-114.7392A86.0416 86.0416 0 0 1 377.856 252.416a30.69952 30.69952 0 0 0 30.976 4.4032 30.7712 30.7712 0 0 0 18.7904-25.0368c4.8128-43.6736 41.6256-76.5952 85.6576-76.5952s80.8448 32.9216 85.6576 76.5952a30.7712 30.7712 0 0 0 18.7904 25.0368c10.3936 4.3008 22.2208 2.6112 30.976-4.4032 34.304-27.4944 83.6096-24.7296 114.7392 6.4 31.1296 31.1296 33.8944 80.4352 6.4 114.7392a30.69952 30.69952 0 0 0-4.4032 30.976 30.7712 30.7712 0 0 0 25.0368 18.7904c43.6736 4.8128 76.5952 41.6256 76.5952 85.6576s-32.9728 80.8448-76.6464 85.6576z" fill="#5D5D66" p-id="1399"></path><path d="M513.28 378.2144c-73.5744 0-133.4272 59.8528-133.4272 133.4272s59.8528 133.4272 133.4272 133.4272 133.4272-59.8528 133.4272-133.4272-59.8528-133.4272-133.4272-133.4272z m0 205.4144c-39.68 0-71.9872-32.3072-71.9872-71.9872s32.3072-71.9872 71.9872-71.9872c39.68 0 71.9872 32.3072 71.9872 71.9872s-32.3072 71.9872-71.9872 71.9872z" fill="#5D5D66" p-id="1400"></path></svg>