<?xml version="1.0" standalone="no"?><!DOCTYPE svg PUBLIC "-//W3C//DTD SVG 1.1//EN" "http://www.w3.org/Graphics/SVG/1.1/DTD/svg11.dtd"><svg t="1629879735180" class="icon" viewBox="0 0 1024 1024" version="1.1" xmlns="http://www.w3.org/2000/svg" p-id="4461" xmlns:xlink="http://www.w3.org/1999/xlink" width="200" height="200"><defs><style type="text/css"></style></defs><path d="M724.736 346.4192h-355.84c-54.8352 0-100.8128 40.9088-106.4448 94.7712l-37.376 358.144c-6.5024 62.2592 43.008 116.3776 106.4448 116.3776h430.592c63.4368 0 112.9472-54.1184 106.4448-116.3776l-37.376-358.144c-5.5808-53.8624-51.5584-94.7712-106.4448-94.7712z" fill="#FFB966" p-id="4462"></path><path d="M899.0208 780.3904l-41.8816-406.8864a150.28224 150.28224 0 0 0-149.8624-135.2704H308.3776a150.28224 150.28224 0 0 0-149.8624 135.2704l-41.8816 406.8864a151.03488 151.03488 0 0 0 38.0416 116.3776 150.92736 150.92736 0 0 0 111.872 49.7152h482.6624c42.5472 0 83.3536-18.1248 111.872-49.7152s42.2912-74.0352 37.9392-116.3776z m-83.6096 75.2128c-17.152 18.9952-40.6528 29.44-66.2528 29.44H266.496c-25.6 0-49.1008-10.4448-66.2528-29.44-17.152-18.9952-25.1392-43.4688-22.528-68.9152l41.8816-406.8864a88.9856 88.9856 0 0 1 88.7808-80.0768h398.8992c45.9264 0 84.0704 34.4576 88.7808 80.0768l41.8816 406.8864c2.6112 25.4464-5.376 49.92-22.528 68.9152zM378.7264 225.1264c3.2768 1.0752 6.5536 1.6384 9.8304 1.6384 12.8 0 24.7808-8.0896 29.0816-20.8896 15.9744-47.3088 46.6944-71.2704 91.3408-71.2704 55.6032 0 85.76 54.0672 88.0128 65.6384 3.2768 16.64 19.456 27.4944 36.0448 24.2688a30.77632 30.77632 0 0 0 24.2688-36.0448c-7.6288-38.9632-60.5184-115.3024-148.3264-115.3024-70.8096 0-125.2864 41.216-149.5552 113.0496-5.376 16.0256 3.2256 33.4848 19.3024 38.912z" fill="#5D5D66" p-id="4463"></path><path d="M677.4784 597.7088h-18.688v-49.664h7.68c16.9472 0 30.72-13.7728 30.72-30.72s-13.7728-30.72-30.72-30.72h-11.4176l22.8864-35.8912c9.1136-14.2848 4.9152-33.28-9.3696-42.3936a30.71488 30.71488 0 0 0-42.3936 9.3696l-36.5056 57.2928c-2.304 3.6352-3.7888 7.5776-4.4032 11.6224h-16.2304a30.53568 30.53568 0 0 0-6.7072-16.3328l-37.4784-46.2848c-10.6496-13.1584-30.0032-15.2064-43.2128-4.5568-13.2096 10.6496-15.2064 30.0032-4.5568 43.2128l19.3536 23.9104h-14.6944c-5.5808 0-10.8032 1.536-15.36 4.1472a30.65344 30.65344 0 0 0-27.8016-17.664h-12.3904V442.368c0-16.9472-13.7728-30.72-30.72-30.72s-30.72 13.7728-30.72 30.72v30.6688h-24.064c-16.9472 0-30.72 13.7728-30.72 30.72s13.7728 30.72 30.72 30.72h24.064v53.7088l-44.3904 20.9408c-15.36 7.2192-21.9136 25.5488-14.6944 40.9088a30.68928 30.68928 0 0 0 27.8016 17.6128c4.4032 0 8.8576-0.9216 13.056-2.9184l18.176-8.5504v64c-0.6656-0.4608-1.28-1.0752-1.8432-1.6896a30.6944 30.6944 0 0 0-43.3152-3.584c-12.9536 10.9568-14.5408 30.3616-3.584 43.3152 16.896 20.0192 39.5264 26.112 59.1872 26.112 11.9808 0 22.8352-2.2528 30.6176-5.0688a30.65856 30.65856 0 0 0 20.3776-28.928v-123.0848l10.2912-4.864a30.7456 30.7456 0 0 0 30.1056 36.864h19.712c-5.6832 22.016-18.0736 47.9744-44.8 66.4576-13.9264 9.6768-17.408 28.8256-7.7312 42.752a30.76096 30.76096 0 0 0 25.2928 13.2096c6.0416 0 12.1344-1.792 17.4592-5.4784 48.2304-33.4336 66.0992-81.2032 72.448-116.992h48.3328v89.4976c0 16.9472 13.7728 30.72 30.72 30.72s30.72-13.7728 30.72-30.72v-89.4976h18.688c16.9472 0 30.72-13.7728 30.72-30.72s-13.6704-30.7712-30.6176-30.7712z m-186.8288 0H471.552a30.72 30.72 0 0 0-0.1536-25.8048c-7.2192-15.36-25.5488-21.9136-40.9088-14.6944l-4.352 2.048v-24.7296h12.3904c5.5808 0 10.8032-1.536 15.36-4.1472a30.65344 30.65344 0 0 0 27.8016 17.664h8.96v49.664z m106.7008 0h-45.2608v-49.664h45.2608v49.664z" fill="#5D5D66" p-id="4464"></path></svg>