<?xml version="1.0" standalone="no"?><!DOCTYPE svg PUBLIC "-//W3C//DTD SVG 1.1//EN" "http://www.w3.org/Graphics/SVG/1.1/DTD/svg11.dtd"><svg t="1629879769515" class="icon" viewBox="0 0 1024 1024" version="1.1" xmlns="http://www.w3.org/2000/svg" p-id="5378" xmlns:xlink="http://www.w3.org/1999/xlink" width="200" height="200"><defs><style type="text/css"></style></defs><path d="M845.824 874.8544v-371.2h-171.6736V237.2608H305.7664a30.4128 30.4128 0 0 0-30.4128 30.4128v607.1808H845.824z" fill="#80B7F9" p-id="5379"></path><path d="M920.3712 844.1344h-43.776V479.488c0-46.4384-37.7856-84.224-84.224-84.224h-87.7056V207.0016c0-46.4384-37.7856-84.224-84.224-84.224H242.2784c-46.4384 0-84.224 37.7856-84.224 84.224v637.0816h-42.496c-16.9472 0-30.72 13.7728-30.72 30.72s13.7728 30.72 30.72 30.72h804.8128c16.9472 0 30.72-13.7728 30.72-30.72s-13.7728-30.6688-30.72-30.6688z m-700.8768 0V207.0016c0-12.5952 10.24-22.784 22.784-22.784h378.0608c12.5952 0 22.784 10.24 22.784 22.784v637.0816H219.4944z m485.376 0V456.704h87.4496c12.5952 0 22.784 10.24 22.784 22.784v364.5952h-110.2336z" fill="#5D5D66" p-id="5380"></path><path d="M494.336 307.4048H348.6208c-16.9472 0-30.72 13.7728-30.72 30.72v111.0528c0 16.9472 13.7728 30.72 30.72 30.72h145.664c16.9472 0 30.72-13.7728 30.72-30.72V338.1248c0.0512-16.9984-13.7216-30.72-30.6688-30.72z m-30.72 111.0016H379.3408v-49.6128h84.224v49.6128zM494.336 548.8128H348.6208c-16.9472 0-30.72 13.7728-30.72 30.72v111.0528c0 16.9472 13.7728 30.72 30.72 30.72h145.664c16.9472 0 30.72-13.7728 30.72-30.72v-111.0528c0.0512-16.9472-13.7216-30.72-30.6688-30.72z m-30.72 111.0528H379.3408v-49.6128h84.224v49.6128z" fill="#5D5D66" p-id="5381"></path></svg>