<?xml version="1.0" standalone="no"?><!DOCTYPE svg PUBLIC "-//W3C//DTD SVG 1.1//EN" "http://www.w3.org/Graphics/SVG/1.1/DTD/svg11.dtd"><svg t="1629879714174" class="icon" viewBox="0 0 1024 1024" version="1.1" xmlns="http://www.w3.org/2000/svg" p-id="3847" xmlns:xlink="http://www.w3.org/1999/xlink" width="200" height="200"><defs><style type="text/css"></style></defs><path d="M762.112 221.0816H359.2704c-10.1376 0-19.1488 6.4-22.528 15.9744-24.32 69.8368-108.8 349.2864 54.8352 459.2128 122.0608 22.1184 316.672 21.7088 370.5344-76.1344s53.504-290.5088 0-399.0528z" fill="#A5ADF6" p-id="3848"></path><path d="M760.4224 129.2288c-5.12-10.7008-15.872-17.5104-27.7504-17.5104H281.7536c-12.6976 0-24.064 7.8336-28.672 19.6608-3.5328 9.1136-85.8624 224.9216-63.7952 377.7024 20.224 139.8272 129.1264 222.6176 287.232 221.184v116.48H335.4624c-16.9472 0-30.72 13.7728-30.72 30.72s13.7728 30.72 30.72 30.72h338.9952c16.9472 0 30.72-13.7728 30.72-30.72s-13.7728-30.72-30.72-30.72h-136.4992v-115.9168c3.2256 0.0512 6.5536 0.2048 9.7792 0.2048 158.9248 0 267.776-79.4112 282.0096-209.9712 21.5552-198.2976-65.5872-384.0512-69.3248-391.8336z m-457.1136 43.9296h409.2416c8.8576 21.6064 24.0128 61.9008 36.7104 112.8448-2.7648 3.072-5.0176 6.7584-6.4 10.9568-15.1552 45.7728-48.0768 66.4576-73.0624 75.8272-49.8688 18.5856-113.4592 10.752-165.9904-20.48-85.0944-50.6368-193.4848-22.6816-246.8352-3.328 12.9024-74.24 35.072-143.2576 46.336-175.8208z m465.3056 341.248c-14.08 128.9728-144.0256 163.84-260.9152 153.344-0.9216-0.1024-1.8432-0.1024-2.7136-0.1024-0.768 0-1.536 0.0512-2.304 0.1024-53.0432 3.9936-227.84 3.584-252.5696-167.4752-3.6352-25.2928-3.8912-53.0944-1.8944-81.5104 1.024-0.3584 2.048-0.768 3.072-1.28 1.3312-0.6656 134.7072-63.9488 221.1328-12.544 43.1104 25.6512 92.4672 38.912 139.8784 38.912 27.5456 0 54.4256-4.5056 79.0528-13.6704 30.0544-11.2128 55.552-29.0816 75.3152-52.1728 5.3248 43.264 7.0144 89.6512 1.9456 136.3968z" fill="#5D5D66" p-id="3849"></path></svg>