<?xml version="1.0" standalone="no"?><!DOCTYPE svg PUBLIC "-//W3C//DTD SVG 1.1//EN" "http://www.w3.org/Graphics/SVG/1.1/DTD/svg11.dtd"><svg t="1629645105174" class="icon" viewBox="0 0 1024 1024" version="1.1" xmlns="http://www.w3.org/2000/svg" p-id="4158" xmlns:xlink="http://www.w3.org/1999/xlink" width="200" height="200"><defs><style type="text/css"></style></defs><path d="M233.7792 848.7424h636.3136c30.3104 0 54.3232-25.2928 52.224-55.0912-10.5472-148.5824-67.072-546.2528-370.4832-546.2528-303.2576 0-359.7312 397.6704-370.2272 546.2528-2.1504 29.7984 21.8624 55.0912 52.1728 55.0912z" fill="#80B7F9" p-id="4159"></path><path d="M952.9344 784.6912c-5.7856-82.6368-24.6272-241.8688-86.1184-379.5968-76.544-171.6224-199.2704-262.2976-354.816-262.2976-155.4944 0-278.1184 90.7264-354.6112 262.3488-61.3888 137.728-80.2816 296.96-86.016 379.5968-1.6896 24.3712 6.912 48.64 23.552 66.5088 16.7424 17.92 40.3968 28.2112 64.9216 28.2112h704.6144c24.5248 0 48.1792-10.2912 64.9216-28.2112a89.088 89.088 0 0 0 23.552-66.56z m-68.5056 24.6272a27.1616 27.1616 0 0 1-19.968 8.704H159.8464c-7.68 0-14.7456-3.072-19.968-8.704a26.88 26.88 0 0 1-7.2192-20.3264c5.4784-78.592 23.296-229.7344 80.8448-358.8608C280.32 280.2688 380.7744 204.2368 512 204.2368c131.328 0 231.8336 75.9808 298.7008 225.8944 57.6 129.0752 75.4176 280.2688 80.896 358.8608a26.5728 26.5728 0 0 1-7.168 20.3264z" fill="#5D5D66" p-id="4160"></path><path d="M512.0512 335.872c-71.0656 0-166.1952 33.9968-215.6544 195.84-27.5968 90.4192-27.904 179.3536-27.904 183.0912 0 16.9472 13.7728 30.72 30.72 30.72h425.7792c16.9472 0 30.72-13.7216 30.72-30.72 0-3.7376-0.256-92.672-27.904-183.0912-49.4592-161.8432-144.5888-195.84-215.7568-195.84zM481.28 400.6912v283.392H331.4176c5.3248-73.728 30.6176-256.4608 149.8624-283.392z m61.44 283.392V400.64c119.5008 26.7776 144.7936 209.664 150.1696 283.4432H542.72z" fill="#5D5D66" p-id="4161"></path></svg>