<?xml version="1.0" standalone="no"?><!DOCTYPE svg PUBLIC "-//W3C//DTD SVG 1.1//EN" "http://www.w3.org/Graphics/SVG/1.1/DTD/svg11.dtd"><svg t="1629879625081" class="icon" viewBox="0 0 1024 1024" version="1.1" xmlns="http://www.w3.org/2000/svg" p-id="2163" xmlns:xlink="http://www.w3.org/1999/xlink" width="200" height="200"><defs><style type="text/css"></style></defs><path d="M908.3392 767.6928V478.976l-42.1376-11.3152 4.1984-97.6896s-180.6336 36.9152-305.152-63.0784c-43.1616 44.1344-153.9072 134.2976-316.672 160.768-38.2464 7.8336-75.4688 53.9136-46.08 105.8816 19.6096 39.2192 13.7216 76.4928 1.9456 93.1328-11.776 16.6912-22.1696 72.5504-12.544 116.6848 193.8944 0 716.4416-15.6672 716.4416-15.6672z" fill="#FF94A4" p-id="2164"></path><path d="M938.6496 433.3056a30.8224 30.8224 0 0 0-26.88-5.0688c-3.584 1.024-7.1168 1.8944-10.6496 2.816V292.0448c0-9.6256-4.5056-18.688-12.1856-24.5248a30.8224 30.8224 0 0 0-26.88-5.0688c-131.6352 37.2224-216.1152-26.112-271.9744-67.9936-4.352-3.2256-8.448-6.2976-12.3392-9.1648a30.70976 30.70976 0 0 0-40.2432 3.4304C416.7168 313.6512 354.816 330.4448 261.12 355.84c-21.1456 5.7344-43.008 11.6736-67.4304 19.3536-43.8272 13.7728-75.5712 39.3216-94.3104 75.9808-35.8912 70.2976-8.192 155.2896-7.0144 158.8736 1.6384 4.864 4.4032 9.0624 7.936 12.4416-1.28 2.2528-2.56 4.5056-3.7376 6.8608-38.0928 74.5472-8.704 164.9152-7.424 168.704a30.72 30.72 0 0 0 29.1328 20.992h769.6896c34.7136 0 62.9248-28.2112 62.9248-62.9248V457.8304a30.9248 30.9248 0 0 0-12.2368-24.5248z m-784.4864 45.568c11.1104-21.6064 30.0544-36.352 57.856-45.056 23.296-7.3216 44.544-13.056 65.1264-18.6368 91.392-24.7808 164.5056-44.5952 285.4912-164.4544 54.2208 40.2432 145.664 101.9392 277.0432 79.7184v109.6704c-92.5184 3.84-159.2832-39.4752-206.848-74.496-0.0512-0.0512-0.1024-0.1024-0.1536-0.1024-1.5872-1.1776-3.2256-2.3552-4.7616-3.5328-3.1744-2.3552-6.2976-4.7104-9.2672-6.9632-4.608-3.4304-8.96-6.7072-13.1072-9.7792a30.72 30.72 0 0 0-40.2944 3.4304c-129.792 134.3488-199.8848 153.3952-296.96 179.7632-22.6304 6.144-46.0288 12.4928-72.1408 20.6848-3.7888 1.1776-7.424 2.4576-11.008 3.84-0.768 0.256-1.4848 0.5632-2.2528 0.8704-11.4176 4.4544-22.016 9.728-31.6416 15.8208h-5.5808c-4.1984-22.9376-7.168-60.3648 8.4992-90.7776z m-2.816 178.2272c6.9632-13.568 16.8448-24.576 29.5936-33.3312 1.6384-1.1264 3.2768-2.2528 5.0176-3.328 1.024-0.6144 2.1504-1.2288 3.2256-1.8432 1.792-1.024 3.6352-2.048 5.5296-2.9696 1.3824-0.6656 2.816-1.28 4.1984-1.8944 1.7408-0.768 3.4304-1.5872 5.2736-2.304 3.328-1.3312 6.7584-2.56 10.3424-3.6864 24.9856-7.8336 47.7696-14.0288 69.8368-20.0192 24.4736-6.656 47.7184-12.9536 70.8096-20.6848 6.5536-2.2016 13.1584-4.5568 19.712-7.0144 6.656-2.5088 13.312-5.1712 20.0192-8.0384 3.9424-1.6896 7.8848-3.4304 11.8784-5.2736l22.3232 29.0816a30.63296 30.63296 0 0 0 24.3712 12.032c6.5024 0 13.1072-2.048 18.688-6.3488a30.68928 30.68928 0 0 0 5.6832-43.0592l-16.4352-21.4528c11.7248-7.3728 23.7568-15.7184 36.2496-25.0368l27.4944 31.2832a30.64832 30.64832 0 0 0 23.0912 10.4448c7.2192 0 14.4384-2.5088 20.2752-7.6288a30.7712 30.7712 0 0 0 2.816-43.3664l-26.0096-29.5936c14.336-12.6976 29.3376-26.7264 45.056-42.3936 2.4576 1.8432 5.0176 3.6864 7.5776 5.632 1.0752 0.768 2.1504 1.536 3.2256 2.3552l1.1264 0.8192c50.4832 36.6592 124.3136 82.432 225.4848 82.432 2.816 0 5.7344-0.0512 8.6016-0.1536 0.6656 0 1.3312 0 1.9968-0.0512 2.1504-0.0512 4.352-0.2048 6.5536-0.3072 14.2848-0.7168 29.0816-2.2528 44.3904-4.9664v53.6576c-22.3744 0.1024-53.3504 3.2256-87.552 15.2576-57.344 20.1728-135.0656 70.0416-187.2384 192.4096H142.336c-4.6592-24.832-8.448-66.7136 9.0112-100.6592z m736.5632 100.5568h-205.6704c65.1776-129.7408 162.3552-146.3296 207.1552-146.432v144.9472c0 0.8192-0.6656 1.4848-1.4848 1.4848z" fill="#5D5D66" p-id="2165"></path></svg>