<?xml version="1.0" standalone="no"?><!DOCTYPE svg PUBLIC "-//W3C//DTD SVG 1.1//EN" "http://www.w3.org/Graphics/SVG/1.1/DTD/svg11.dtd"><svg t="1629644951678" class="icon" viewBox="0 0 1024 1024" version="1.1" xmlns="http://www.w3.org/2000/svg" p-id="3702" xmlns:xlink="http://www.w3.org/1999/xlink" width="200" height="200"><defs><style type="text/css"></style></defs><path d="M803.8912 523.9808h-424.448l32.3072 344.7808h345.4464zM414.3616 299.8272s-27.2384-111.2576-133.888-95.5904c-106.6496 15.6672-132.8128 155.5456-50.432 211.7632 22.272 20.736 61.44 31.3856 61.44 31.3856l-11.008-137.2672 133.888-10.2912z" fill="#4BE2AC" p-id="3703"></path><path d="M883.6096 119.9616h-170.496c-24.1152 0-45.0048 16.384-52.0192 40.8064-0.1536 0.512-0.256 0.9728-0.4096 1.4848l-24.9856 106.8544H457.9328c-10.9568-88.1664-86.3232-156.672-177.4592-156.672-98.6112 0-178.8928 80.2304-178.8928 178.8928 0 95.0272 74.5472 173.0048 168.192 178.5344l33.9456 373.1456c2.9184 32.3072 32.768 56.6784 69.3248 56.6784h351.0272c36.608 0 66.4064-24.3712 69.3248-56.6784l49.2032-540.3136a30.9248 30.9248 0 0 0-7.8848-23.5008 30.86336 30.86336 0 0 0-22.6816-9.984h-113.2032l20.5312-87.7056h164.2496c16.9472 0 30.72-13.7728 30.72-30.72s-13.7216-30.8224-30.72-30.8224zM318.8224 330.5472h302.5408l-36.0448 154.1632H332.8512l-14.0288-154.1632z m-155.8016-39.2704c0-64.768 52.6848-117.4528 117.4528-117.4528 57.1904 0 104.9088 41.0624 115.3024 95.2832H285.184c-8.6528 0-16.8448 3.6352-22.6816 9.984a30.53056 30.53056 0 0 0-7.8848 23.5008l9.5744 104.9088c-57.088-7.8848-101.1712-56.9856-101.1712-116.224z m561.152 546.9184H373.1456c-4.4544 0-7.2192-1.4848-8.2944-2.3552l-26.368-289.6896h232.4992l-23.04 98.6112a30.75072 30.75072 0 0 0 29.952 37.7344c13.9264 0 26.5728-9.5744 29.9008-23.7056l26.3168-112.5888h124.7232l-26.368 289.6896c-1.1264 0.8192-3.8912 2.304-8.2944 2.304z m54.272-507.648l-14.0288 154.1632h-115.968l36.0448-154.1632h93.952z" fill="#5D5D66" p-id="3704"></path></svg>