<?xml version="1.0" standalone="no"?><!DOCTYPE svg PUBLIC "-//W3C//DTD SVG 1.1//EN" "http://www.w3.org/Graphics/SVG/1.1/DTD/svg11.dtd"><svg t="1629879648839" class="icon" viewBox="0 0 1024 1024" version="1.1" xmlns="http://www.w3.org/2000/svg" p-id="2778" xmlns:xlink="http://www.w3.org/1999/xlink" width="200" height="200"><defs><style type="text/css"></style></defs><path d="M836.9664 332.1856H299.264L215.3472 449.792l297.5232 455.9872 385.6384-434.2784z" fill="#FFD578" p-id="2779"></path><path d="M946.4832 428.032l-119.4496-184.9856a30.7712 30.7712 0 0 0-25.8048-14.08h-0.0512l-172.7488 0.2048c5.9904-2.4064 11.264-6.7072 14.848-12.6464l50.6368-84.1216c8.7552-14.5408 4.0448-33.4336-10.496-42.1376a30.67392 30.67392 0 0 0-42.1376 10.496l-50.6368 84.1216a30.67392 30.67392 0 0 0 10.496 42.1376c1.4848 0.8704 2.9696 1.5872 4.5056 2.2016l-77.056 0.1024c9.728-5.1712 16.384-15.36 16.384-27.1872V86.016c0-16.9472-13.7728-30.72-30.72-30.72s-30.72 13.7728-30.72 30.72v116.1728c0 11.8272 6.7072 22.0672 16.4864 27.1872l-66.816 0.1024c0.8704-0.4608 1.7408-0.8704 2.6112-1.3824 14.2848-9.1648 18.4832-28.16 9.3184-42.4448L388.352 96.768c-9.1648-14.2848-28.16-18.4832-42.4448-9.3184-14.2848 9.1648-18.4832 28.16-9.3184 42.4448l56.832 88.832a30.208 30.208 0 0 0 11.8784 10.752l-174.336 0.2048c-10.24 0-19.8656 5.1712-25.5488 13.7216L79.4112 432.7424a30.76608 30.76608 0 0 0 1.9456 36.6592l382.9248 461.1584c11.6736 14.0288 28.8256 22.0672 47.0528 22.0672h0.0512c18.2784 0 35.4304-8.0896 47.0528-22.1696l385.8944-466.2272a30.62272 30.62272 0 0 0 2.1504-36.1984zM230.7072 316.3136l63.488 102.7584H162.3552l68.352-102.7584z m408.9856 164.1984l-126.3616 349.5936-122.4192-349.5936h248.7808z m-220.672-61.44l97.6384-109.2608 99.2256 109.2608H419.0208z m260.8128-21.0432l-97.4848-107.3152 166.6048-0.2048-69.12 107.52z m-325.632 1.3312L287.3344 291.072l163.8912-0.2048L354.2016 399.36z m-28.3648 81.152l113.3056 323.5328-268.6976-323.5328h155.392z m379.1872 0h146.176l-259.7888 314.2144 113.6128-314.2144z m34.304-61.44l64-99.584 64.3072 99.584H739.328z" fill="#5D5D66" p-id="2780"></path></svg>